<mxfile host="app.diagrams.net" modified="2023-08-28T12:45:54.672Z" agent="Mozilla/5.0 (Windows NT 10.0; Win64; x64) AppleWebKit/537.36 (KHTML, like Gecko) Chrome/116.0.0.0 Safari/537.36" etag="Ouzn3A2WWd3fHN-nn83u" version="21.6.9" type="github">
  <diagram name="Página-1" id="YggAasTu_5IIFEoiFt_R">
    <mxGraphModel dx="880" dy="488" grid="1" gridSize="10" guides="1" tooltips="1" connect="1" arrows="1" fold="1" page="1" pageScale="1" pageWidth="827" pageHeight="1169" math="0" shadow="0">
      <root>
        <mxCell id="0" />
        <mxCell id="1" parent="0" />
        <mxCell id="hIM_Yc48U5NnjwSIPtRP-34" value="Server 1" style="shape=cylinder3;whiteSpace=wrap;html=1;boundedLbl=1;backgroundOutline=1;size=15;" vertex="1" parent="1">
          <mxGeometry x="40" y="850" width="130" height="150" as="geometry" />
        </mxCell>
        <mxCell id="hIM_Yc48U5NnjwSIPtRP-1" value="Monolítico" style="rounded=0;whiteSpace=wrap;html=1;" vertex="1" parent="1">
          <mxGeometry x="20" y="40" width="120" height="60" as="geometry" />
        </mxCell>
        <mxCell id="hIM_Yc48U5NnjwSIPtRP-2" value="Distribuido" style="rounded=0;whiteSpace=wrap;html=1;" vertex="1" parent="1">
          <mxGeometry x="250" y="30" width="120" height="60" as="geometry" />
        </mxCell>
        <mxCell id="hIM_Yc48U5NnjwSIPtRP-3" value="frontend" style="shape=step;perimeter=stepPerimeter;whiteSpace=wrap;html=1;fixedSize=1;" vertex="1" parent="1">
          <mxGeometry x="170" y="130" width="100" height="40" as="geometry" />
        </mxCell>
        <mxCell id="hIM_Yc48U5NnjwSIPtRP-4" value="backend" style="shape=step;perimeter=stepPerimeter;whiteSpace=wrap;html=1;fixedSize=1;" vertex="1" parent="1">
          <mxGeometry x="319" y="130" width="100" height="40" as="geometry" />
        </mxCell>
        <mxCell id="hIM_Yc48U5NnjwSIPtRP-5" value="BD" style="shape=step;perimeter=stepPerimeter;whiteSpace=wrap;html=1;fixedSize=1;" vertex="1" parent="1">
          <mxGeometry x="507" y="130" width="100" height="40" as="geometry" />
        </mxCell>
        <mxCell id="hIM_Yc48U5NnjwSIPtRP-6" value="" style="shape=flexArrow;endArrow=classic;startArrow=classic;html=1;rounded=0;" edge="1" parent="1">
          <mxGeometry width="100" height="100" relative="1" as="geometry">
            <mxPoint x="200" y="112" as="sourcePoint" />
            <mxPoint x="410" y="112" as="targetPoint" />
          </mxGeometry>
        </mxCell>
        <mxCell id="hIM_Yc48U5NnjwSIPtRP-9" value="Lógica del negocio" style="rounded=1;whiteSpace=wrap;html=1;" vertex="1" parent="1">
          <mxGeometry x="319" y="180" width="80" height="40" as="geometry" />
        </mxCell>
        <mxCell id="hIM_Yc48U5NnjwSIPtRP-10" value="Visualización&lt;br&gt;web&lt;br&gt;móvil&lt;br&gt;desktop" style="rounded=1;whiteSpace=wrap;html=1;" vertex="1" parent="1">
          <mxGeometry x="170" y="180" width="80" height="60" as="geometry" />
        </mxCell>
        <mxCell id="hIM_Yc48U5NnjwSIPtRP-11" value="SQL&lt;br&gt;NoSQL" style="rounded=1;whiteSpace=wrap;html=1;" vertex="1" parent="1">
          <mxGeometry x="511" y="180" width="80" height="40" as="geometry" />
        </mxCell>
        <mxCell id="hIM_Yc48U5NnjwSIPtRP-12" value="Angular&lt;br&gt;React&lt;br&gt;Nes&lt;br&gt;Vue&lt;br&gt;ASP" style="rounded=1;whiteSpace=wrap;html=1;fillColor=#FFD503;" vertex="1" parent="1">
          <mxGeometry x="90" y="250" width="70" height="110" as="geometry" />
        </mxCell>
        <mxCell id="hIM_Yc48U5NnjwSIPtRP-13" value="ajax&lt;br&gt;jquey&lt;br&gt;axios&lt;br&gt;fetch&lt;br&gt;retrofish" style="rounded=1;whiteSpace=wrap;html=1;fillColor=#61FF12;" vertex="1" parent="1">
          <mxGeometry x="260" y="200" width="50" height="150" as="geometry" />
        </mxCell>
        <mxCell id="hIM_Yc48U5NnjwSIPtRP-14" value="python&lt;br&gt;php&lt;br&gt;java&lt;br&gt;ruby&lt;br&gt;javascript&lt;br&gt;c++" style="rounded=1;whiteSpace=wrap;html=1;fillColor=#FFF70A;" vertex="1" parent="1">
          <mxGeometry x="319" y="230" width="80" height="130" as="geometry" />
        </mxCell>
        <mxCell id="hIM_Yc48U5NnjwSIPtRP-15" value="javascript&lt;br&gt;html&lt;br&gt;css" style="rounded=1;whiteSpace=wrap;html=1;fillColor=#FFF70A;" vertex="1" parent="1">
          <mxGeometry x="170" y="250" width="80" height="110" as="geometry" />
        </mxCell>
        <mxCell id="hIM_Yc48U5NnjwSIPtRP-16" value="django&lt;br&gt;laravel&lt;br&gt;spring boot&lt;br&gt;ruby on ride&lt;br&gt;node&lt;br&gt;go" style="rounded=1;whiteSpace=wrap;html=1;fillColor=#FFD503;" vertex="1" parent="1">
          <mxGeometry x="410" y="230" width="70" height="130" as="geometry" />
        </mxCell>
        <mxCell id="hIM_Yc48U5NnjwSIPtRP-17" value="" style="shape=image;verticalLabelPosition=bottom;labelBackgroundColor=default;verticalAlign=top;aspect=fixed;imageAspect=0;image=data:image/jpeg,/9j/4AAQSkZJRgABAQAAAQABAAD/2wCEAAoHCBUVFBgVFRUZGRgaGiUdGxsaGRsdHRwbHR8bIhshGhsdIy0kHR0uIiEjJTcmKy4xNDQ0HSM6PzozPi0zNDEBCwsLEA8QHxISHzMjIyozMTMzMzMzMzMzNTM3MzUzMzUzMzMzMzMzMzUzNTMzMzMzMzMzMzMzMzMzMzMzMzMzM//AABEIAMIBAwMBIgACEQEDEQH/xAAbAAABBQEBAAAAAAAAAAAAAAADAAECBAYFB//EAEUQAAECBAMFBQUFBgUDBQEAAAECEQADITEEEkEiUWFxgQUTkaGxBjJCwfAHUtHh8RQjYnKCkhczU6LSFRayQ2ODwuIk/8QAGQEAAwEBAQAAAAAAAAAAAAAAAAECAwQF/8QAKxEAAgIBAwMEAQQDAQAAAAAAAAECESEDEjETQVEiYXGBoQQUMvBSkbEz/9oADAMBAAIRAxEAPwDxmFHq3+G+FbN3s5sr3RclgPdhpX2bYfu0qMyfmKg4GSiSpn91/drC3IncjyqFHrUv7NMKVLHezwEpBBdFSSoEPl0YeMOn7McK6AZs4KV7w2KUNtneILDejySFHq6fs3whEwidOyoOyXRXns3f1EEV9mWFzSh3s/8AeX92lKfBvpBaDcjySFHq837NcKETVCdNPdilUMWDl9mCf4Y4XNL/AH05lh/goQl/uwWg3I8khR6uv7NMMETFGdNdBIuirJSr7vGJH7McNnSnvZzLQVJOxcNQ7NuMG5BuR5NCj1o/Zjhsqj3s506bHT4YX+GeFoO+nOoFqoqaN8PGGG9HksKPUf8ADnD5Vq72a6CQQ6LgtfL9NBh9muFzAGdNYihdH/HgYVoNyPKIUerTPs1wwSpQmzjl4o3t92HH2bYXvAnvp2XK7uh7kFtneIdhuR5RCj1Sd9m+HSB+8nFyB8HI/DvhL+zfDBRHezmCM10Oasw2awrDcjyuFHqP+HWGZJ72bUiroatPu726RE/Z3h6/vJtA90Wp/DzgsN6PMIUemn7PcPmAE2axauzqVfw7gDD/AOHuHqe8nMP5XoDbZrWkFhvR5jCj04/Z1IDPNmW/h8Bs3iKvs8kMCJsyv8v/ABiqDejzOFHpX+H0j/Vm3b4f+MAHsHLZ+8XZ/htUn4aUibF1EeeQo9D/AOxJVduZTTZ0D/dhz7BSXbvJn+3QAn4eMLcg6iPO4Ub3/smXmIzTKbsu8Dd1gM/2NlpfaXT+Xe26Deg6iMRCjaf9pS6ba3Ng6eL6Ql+ycoH3ltzTy3b4jrRDqIxbwo2X/asr76/9v4QofViHUR7CsbSEgBkNm/pZ+r+kDwq/8wuKi/whytsvKsQkYj35hDJKRXeopsPFvxhLBQgqLMtaE5SP4q21IVbhDeMmQpy2lIY/ErhmZRf/AO0W1l8RpQ+WU2pvMU8QhSUSk/GSdCQAS56RaWg9+ljpmPhlp4CGk/8AgyrJSBhlpvlJJbVleVmgmNVtSlC+cJI0ptKrwAMNhpSVTJwPuZUpbQspR8atApCyZEwkbSVLKeBLkMeUT2r5/AiS5TGdLKnCkO4GsxawKbqivOJrWFS1TPiQZgSORIPpEsVLzS8wLFQQCdwSoKqN14ZchLISKIVnJq/vkKLcST62i1HIE58oFeTSYVZuqPTZhIKSo/8AtBn/AKSlXSjw6JoOIUC9JaDW1VTBTjTzivhvenIN1LUkHhkSoU/qMFO/sBpsw9yJgY5lJCgbFjlNdHEFXKAmy0bk5kq/lUKdQfWKs9B/ZhLSNpCAog3+J/QwTErPeS5iSCAUoV/8hQQrlVm4vCaa/AFlEtIE1g7mo3mpp0MVsTRKFCoSoj/dTyDdYnJmH9ob4VAj+pLC/KvQxWwozpmoUaHKp6/ET53HSBu8AXpqv3hTopA5HfAUJCkZXYpYHUupiGcW/GJJU8sLN0Av5PpwiCFkIRMPxqDtpQID2+jA2lkpBpqznSuyVJGnBRPk0VpisyEgXFjqAFIdt/LhB5x2QNHSQ13JDCKuHLqcmqcwBb+Iu3VLQm80DHmLDA5g2cAHgAQ5HUdWgQWMlqUYDcpnY7tr1iZolSmtdLU0dv6RA5lAlzTYAGoLywPN4KdkhJS2Lm3nQC/KsBkLOrCwHHK78jQw6lM70LKIJ3AMHHWHKHXSlcxG8nOOhY+kXV0DITHUQNzH1avlDziCQBorpR3fw84Uuc78Ftb7pBPqYjMOXOdwzc6U8/WKSTVsQFc1lAEEC5pQBOUqPiW1tBE/C7MWHjmUfKI4hDmhY+7W1SFKJ8IjPUXBFkpWW0egT5P5xDjV0SFWly739FkAeQgWJQKsXcLL82H1yhkFsoq2ZA3WSSb+FIeaLcQoauS768YbVxyAu7GZR3lQf06RDEJSXpepPN/mPOCLW6mr749PRxAZitkauAK9TpweE6UQEuUk2Ft24MDEEyQTrYv6GDgh3/mHR3HDSBEtajIcdWccbiE4RENLkhhp1MKJsdBTTlDRPRA62JQCUYd6CWl71qArj8LXpni1ikFcxKKFKSlR30zMebt4Q2GQO9Uv4srE6aEeNYhgCDMWsahIc/ygxsolhUTM2KZ3yItuzNXjE5SnxS62RlZ9Hf1+UBlryTlrOqUsSBo7sW5eUR7LWVYmcq6cqWJ4gEs43xEk018lIP2et5k/hMA5shL+rRX7KW4mAgNnVStnKW8ADFnCqSxUkNnUTXe9+FvKKeADGY1AV08L14vFKOU/kTHRMy4ZWYe6lVL2BMPhphVIc3CN/wDCCOV2ieGObODbMUs1gAB4wDs8VmS/gSQkA7sqbm+sFepNeGhBsVOZCV6gpCjwcatZzDz17SZgplWQrcX2fw8IWGqFJIcAs2jMGivgA/eJXVphU3MhSX/DhDayvcA81W0DYE5DWlSr66wBS/3qGAyLIu7AoIZvANyiWCTVaFFyleboWI8KiB4SpWhYfIt0nUbvyiXmvdgHwy8sxb1Scy0l9WAbnr1iGBlsFy8w90V1OZRKelxEpZJzAs4BAbiGPmDFfCUVlU2cS0uRcgKNz0B4GG4q0x2WMMh0LRR38SXI8miM9JXKKQzpmO2/Kxau+kNgJtVJNz55VLYjVmaIonHMtPVg9yqYPkIVcJjsdRzBB5Ok8GW/mR1G6FM2RmTtOFkU3kkM1w7C2ohis5rtR+b5gKcgPCO17MYMKQiesMyTlBowckqI9ITjRUVbK3/TkS0GZiCQlQ/yxSmUBlG+mhjodldr4WYCmUQFC6SnKr/9dI8/9o+2DOmKmOcqiQkEuAke7SwJv1jhysVtUpVxVv0jPema7aPX8StJOVWUg3BsbUEcuZ2OSvNKKcjE7SqgkilBUACh49Yxvs/7TLIWmYSsIWpGdzmITZyPeoQ7mtY7PavbCP2YLTMfbSCBxzM8Xpp7kvITScbLK+zJiCCMpoXKVg7Sr0pueKa0OVDeQluAqfKM/jMWFqzSyoUrVnPSGwnaq0KFXA0Nnt0jv/a0sM4t+eDvoc1qWmKJ5AEfJ4ilGZLHVLHmTWFgcSFpdKq3VwNXhSFsEhj7rnWqj+Mc6htdMoNPSyRd8u7QctawDEAApVoFZuhBpyh0LJyufhPiSK+XnElAMQTRvyENxtZGNMLByQKMegJeGWn3X3gt4DwqfGEtH7u3wsObQlrcP95IZ9CbfXCJlX4ERsSl3yhq2qCaaRFCGqfpmbXcIYfEdFMrkKfIeZiU9dDRnDv6+UEUBYlilvWFAUzBvEKNaEdrAzR3SVl6pzE2LGtTyiOEVRYOha2gApFbEzQmWUJLXQ1fuEtSxoBBJLS01JchzrXKH8hGKffwVZYkzQoKG4sOm7rFLBziiemWxBEkEnqBp/KfGB9hzHlg6kqOup+VR9VlhpZ7+askNlQgDcwJP/kPCCnJL8issqmZO7RrY8WSSSeZAMNNVkSK/EnQWcP+sVZ+1OlBxQKXr/CkdPxgnaC0nKkn40aH71K8xEvh+7wOwsuX3aJlblS6N9aRaw+HCUldyvaJGrjhFXE1SU02gR4g/p1i7hpqTKSyqBA9IbS3N+FRUeCl2Ul5eaxJPHcK8RliWCl+/cnMX8S3lDdnyghK0s2WYR0oq/8AVDYB+8XWhCVCnMEDyPWBYSCh8GD3iwqljpUEFngOUJxKqHaQncxIKh+HjBsSsJmu4sAd5cm/1rAsWsOleodmuQWf8ekThpvwwJzdhYVZylO779AP6ngGJWUTQoOxSxb+ZIr4mnExPGJK5aSDtJyrB5MS3R/GCbKpdToK0dxy1Bi6tv8A2DBYhOVRmCjJPn+A9eEJaA4WLuyq3AcdNYWGXnQjPdSMx3MagPvaIyyy8hNFUBpWkxRA4BxA2nTQkNOSSEFPvEoHMEg+FY9AOFHdmUKJyZBwDMIwp2FhWgI6HZb09I3qJoUkKFjUcQaj9InVRrpngvaWFmSzkW7poeJBuDqI42L7QEujurRIvrfdHrntT7K4fEqUs50LIPuKUEk0ugHK9anWMjM9j0SQsIQFOCCR7zEca+D9I44Q2vLOiWeDJdkdjTJqCZkxSUKOYpTTNmqcx3eMXParEtkkpcEELW2lCJafAktxTHZkSjIkpcFZAypdJvXLn3D18SM53ZzrXMcquSd5WmsdF0ZFjB4xhXRouTlMX0MchEslagmxWW3MD9eUdBaxkclg7uaAB2jv0dVtZOecMlmXjlS2Ul3cJLcw78GcxqpWKTMQZiTYAH+Es5cdY83ViwtYawU4rrZ/CnUxpexMWRMKWotIDdL+D+MZ6k1LK7BspGpXfdT9Pn5RFEwHLuIfxa/UxAqclr5PMvTyHjEEMSg191tWs/yiG3WSQqJroQNS133GlNYjMmNlSDUFtfiBAfyhjUPolQFt6h8jAsoUFu+hH9I38xEyV8AEmhkEA0S2nwh+u+HRQsTZIFjYv+EIKzEV99Oj7i7bqkeECWr3QOIepvbSHFPkCxKKWFP9sKAZUjU+JhRvtQi1hausqLBeeou0sJMH/aQshSGIJqXNiinoPEwljLLW7+6o8agks254D2aB3aFBmUhBHRIH4+MZRjToCwqaEBCBYEAVqXCvkPKCiYEupq3PkPT0jnqUJkxtUAKHXOAW338ILjltLWXFreDt4wWlFv8A0KyWBDhK1DbYg8jXqK+cRSvNNWmjAJs9D7wrvrBJYOUPSn0Yq4G8xRIJK6EWIypiZRW6K+wss4le3LDO6i/RJ+ZHhBFzsqSzCjVivMbMkHiRwpeB46steuwab6RdJqTTCzpJnJKCoMCs5i9bsH8AIH2LPcFJFUkg8noOreUVMOTkTtA7IqNaXhsJNyTVi7pSqn9QrzbyiZQ/jkpTyGnzf/6ikindpUOBB3w2PNUGmV1BXLIo2EPi1gzELHF+WUt5gQ8+YkpIPIHc9H8ImGnzH3sdoNNl93LITYJISL6MBxivh5gIUkVI0GpI9XpClTFDKc1WqGDPv3+cVMKWmzE5rsq1KvrvaKlGmnfsJyLHZszJLCVgZkMmmoCUAN5dQecFWsCZWlCUkjV02PQvFTF0TmBZ1JB47SbnkIsYhAUggK5EbuvD1iXCk0UmHxitjRnF+JEXcD2yuUjIoZ0iwBZSRWz0bgY52EU6AlV0gAvqcoL8LxBJbMHcD55vLTrDtNWyk6yjuS+0pU5XdpCwdc4AACRmIzO1oy2M7cmHEolIkhCSsDOsnMx3JIAF3fa0jpYBWTEIOYodSnVu/dzACzaFmHCMl2nLQnGJAEx+8G1MSQpTqDHfUcj8s5acTSOpJo02AKphVLbOFBI2vicrJfleOT7W9jSUyx3a6FJF3ZaTUI2TQHTNYco0kztCVhJedS0iZMAopCyUIOjJDgm9W0Eeb9s4sTJilJUshReiShINqJJItqzxlOSSpFwj3Zaw2FIlTMpKglKVBZAFFJGc0sQakb3uxjmTJBmSloGiHTxKajpSNJ7H4YLw09U5ahh0qypUBdaqqTeoSQlVaOeLRncXiky1KUhZyVACgElQNKBnqOMb6MvTkiaqWDLJUoAFlAesaHsDFLzIIALKF1cdWSaxw8QSQPN9/CtoP2fily1JVRgQW2g4BseEZqRUlaPVpEwlQSoMoihd0lrMb+IHrAguib/5h3aFQ/KMnh/amauYhHdoGZaQkusMXbeaEEjrGpxBYoSBdVdLEqJ8TGqipLDOaUaDZwy7sFA+DF/BolOUxYPtO3Bh+cVpgbOGO0HO92y+giSSdk1cD1EUkndE2MpRGUuaEJ6qofURLKQweyn6V/HzgY2goENtv6N6QxWCoFiHSehoYqNX8iZY74HfDRX70CmUnrCjW14EdTFgEZC+1Q3oClQPVxCw2EEtGRFgKPWwp0oIgtOeaSHFALagkj5xcxqglLVJIJsDQUNOZEYbklb5eC6KGERUzLBSQAP5Sa+bdBEcbLzrQg0BCyWdyRka3WCypTBhbd8uUTlAFdRVNAaMxzAt9bockqUSUsjrJY6kDXVhY8Yr4IMkFw6gFEblEB28GgvaqCJayBUgsbsYjKQkISA7MG674Ualqv2QmqABZM5SC1Egpp0VXw84sLUwqxGo3xGUEZypV8tK87jwhp2UptQVqWFK18IpY039hQSWlgAGHAWEClKBWsuHCmfgEpp5uOZiUlIyh768YDIS0yY4vkIvuUD6CCa/j8gTxK8pSTZyPEN6tBuoP1urFbGgd2on4Q/hXraLChan1rFJVqv3QA5S8xVV2LfjzhlKCZgOqhwqQUADwJpEMMwXMSRdQIPHIH9POGxSQz6oOZ/kIlq4NLlFBcUNhWtDuuxiUtbpTYUHi0IqSbVr+bV5xXSshRGhANTZyWYdAITeFICWGWQtZzAHvAOQyIt6xaxswMGNSRRxa5vwBipiEapHxZubQSSyw5ANHo+o/B4bSQ0whW4d7uPz5xy/aHtRH7fh1mWVDYUXV7ygQfdY7J8axc74IIK0khKHyh6krQkD/c++kef9p4yZOxaytgc6g2iQksAOTaxz6k2sL+o69CFptnf7d9oFTCRQbRNEglySTtKzeAAjn9gdnKxOIQkoK0JIVMK1HKJYIzFRFA4oKOSYFguzs5Dkh/ddJUpV/clpqscaDTldw/bKVJ/Y8MnukK/zlrJ7xS0uMyjonTIGA5vHPD1Sot4R3+2vaLMP2fDywlAKkBMsshaSAAQlIoWd+kcrtP2flqwYWoPNQolagosHS6UgG4oQ+pfhF7CYWXKBMoEjISVn3lHfwFg0dWTKCpc5TA5AlRG9IWM3k0dj/izmjNuR5T3JO6nrCyNUx1sfh+7mKS2rAmxFgfMRTnpcgJ8+JB6mrRglg1vIfASR3ko2aYPURvVqAvUfrrGHwywJks6ZwT4/l9PGzmLcKYgCwJpca/hHTCkjnnyAwyytEtYclRcio9578A8HmTEsptA8AwiSlCEA1sOWj9KQTOxJBBNBy3lj1bpFL0ql7YMmPPISgcSBvuQIklgS9rjoBAJyis5XYAuTTSobrWCz5tABrQluH6Q2n9gJMxJq3pCgaUAaw0V014A0GGUxehdRZtzuIqiYuZMUHAG3kpXYUgZqmofSAYecSKsMuyOQAvxit2WostSnC5a1AGtQou45mkc87pSePYpM6ilkAkgOndryiOAmOVK1zEM1aM/iwMc7ETlGRmDkqQCNKtamnCLEpQSl3bMWoKOamu9z6Ro3T3PwhWT7XxRUUS6tMCg/LKWPA2g6cMQGKtOrU/KOTiVq7+SfhAW99QK7v0i4QHFW3caU9IiEdknJd2kDHlqdSm0LHmALb7xKckgGtg58LRVkGq3Y7ZPp9dYjOXmTMY1AYOLKagHIxq01FR83Yi6BrZ92+BKS0wEEl05T0cj184ghbgHeH8oHOIzpILgO78b+Bp+kVKrjH+4EXDKzul7g6ncYHJJIAzOE0F7h3ffu6RHOQQ2pA8SB0EVpKGUsMGcEMPlpClFvUQ+xcWQGLtU/+Kr/AFpDKQ6SCXoxO8tFXEVGStQa8muOsTQXDkVN+sOKe+VgHQzM9RtdFN+EAxKKO9XAPFOZLg+sRQQpZuB/xKnPOHcajW0Rpq4NPnIB6VNHe9zuv08oGEaAsKC7MxJbwgOHOyRoVFQe7ElulzvrA8So7AZ3WLMPotEyV6WCg+IlhQJzKSWIdKiG3W4sekZfE9gKw0zvHMxwVbYcKNS5AO2aGhNTvsdQyQaaXNS5jh+0MwpKCmhcK1+EEfn0Mc+tmKce5vpTfBZweP7qSKkmYHK2SQsNY5tAp9w962hey54LlWQKCjmZLF+YvRhWtBdozvY00zVd0pNitgBZqluLvbe++NPgJQykmoIGtyPd49eLbo59CDjqWydRu2WEkKGRwCp3vYa+b9I6Xs+ErmTJb+/JykPuUkkcmeOJiFEFJbUJJNtq8dfsRYE5BylTBSizUGUh1P8ADdwKx2Sw3feiYfyRjPbOUETgmUVFkgKJAYlNGSdQAA54axD2d7OlzEKVOJUsEMApQYHgkh6iDe1apiZ6lTB7zlDMdlyxpQCpiPYc9AzAg51Mym2WS5YHTW8Zwrubz4Osns+QhSSiWHBNVEqYjUZiWi4iYjMRQttEc2A9IDhahOZrOeV7ecDnOZlAySQK61zdGjSUopKPfDOVtsMpaRr82hp6xsKDMFVpVrfN+kJf+WtIusBILWu5iCUmo3elI6MSk1xXcAyZiQ433gcpqPf50hJBav19N5xFSlAhhQVtz8bxXml3Esh+/wCMKK01aiSyR5iGjLf7MdF7DIyFbl8ys1fl0AieIKQizFawn/au3VoileYA0qH5OIhiDmKEhzkIX/5AgePnFaqVKK7krklITllpQa5Q3Pj84WIWNlLGpejfCx+uUOpQp84HiUHMgh6GtPne3rGk9qSixLkMtiQTpaBTprqQx90q3PavrE4glDKKqMzAcaEnxeFqxVx+RomlY3EPDpQEKNc2YAnnX5EDpETeIqmgt9P0hzjcl9ggiV7ohJWSnMdSQG4Ev0/OEF1/OIoLbIAuSpXFW1bqIU2lOP2IeadnUVB6OIPOAB+hf6eKy7F9RCqwqkkgGm8gGCWNZe6Y+xJa2Uilzl4AEhzBJymJFg+jRXXUN4fKJrnJJIDOySaXKg/X9YmUlHVS8h2FhkMdwKiR50eJKVu+vxitiFqCcySKA0a70guZ2O8MIqMdsn4oofDznWoGwDeIMRWbEixccIHUKJGoA8CfkYJNmsoUNgH0txP08Re1qNcgLDTyUE0DrIo+ilH0EcP2onjIvKtGeWUnKCAoBQYtvNXYWasdVaSlaAVbJfcfhN/OOJ7Wdny5SVLSCVrqotYq2QBwy5i9n10HLNqOHy2a6apnN9jZ5OKe+ytR5qofF42CyoKSlJpX0pSMr7IyEI/eZiVKSpJDBk1S2ruekalahQPVnJL9B4RrCC5XIajyEnbSQKXe3MN5xDDTznW6lM2U5KEJUkhWU6FiesV1TC0yrkWrYhIZusSwyGSN5Ac7y0OMM18tmatHB9r8dkWyMMmWlQCu8UozFKLF9qgud2kVvZLFqmTylTf5amYClUufB/GOn7WYUzMOldyhSnu7Zj5V8ozXs0vLO1qhQDAk23CMV4Ol5ibrHzCEEIJzab7/AIRMBRSFKJBIfq34wLCzUqSDVgLKfQav0jndo4yYhaTMCDJcOQ5NLMBXjaluJtqnXajnUW8HRmqOdF2ra2jQeSWzF9PmLcYpyMYiblVLWBlO1mSSeAALNzivM7Vkg/vJgVyBSB93Q0pweNJSTtfAbGX1JVmvQjiKm/yiS0MC5tfppFfB46UouiYkkBwAegelqxI7nb64RcZttpcIVZJIk0v5QoPLAIFR5w0a74jpltBvqwfoIAFOrM1HKS4pQlvl4xNc0JTdiohIr94gfX5wOUs7YLuFk+IBHrGcpbtSq4M0g6Do43VH5wGXOzAk6KKf7SR+fWJoI1vfw5wLDIYG7Zs1f4mP1yipf+i+GCWAgVC7wkqoaMPJ6DS8OmphLllKlOaElv6aW3UPlDnOO5IKGzQ/dFLn73pRoSSHaISpoWkq3KKQ+5MTqTqcfsCQeGlZjnJ0Uwr/AApvu/SGCxEcMlWZbe7RVbVpf+keMGtKmn7jRMPEcONhRegUQOlIcrG/65xLCMVd2wZio7357q+UTrzcakFEUvAcG5zimypugGsEExv0gKDkWW+P1Gb1p4Q9RtuMkhpYCLdiCIlJS1Rp8nic/ZoRU+goPn5QBU1t9TVyfGLk7juQEhu+URlKUQXIJzEbmD08osrACUnVTnkHYOPq8UsOojNxUSH1dvCIUlJpr3H2CKzEhrgvTjoz1jg+0q1EitKgk7wbeZpxjUS5gQgqIvQa6fqOsY7trFOtQAfbLv8AL60jg/UPdLcuzo10uSfsyD3p/k37iPxjTYeUFnaJsSaByQ7RnfZeYCtbhmRVtzm0dk4giobaU1TvfrGum3sdYYaiuQDEoCELNWINAammhINekWcNLDhyWZzXRq1iYS6FlSQQzANQk/KlTFKbMUlKWIDEJNHJBIDUs8adRtyiuy/JnV4Of29MMtC2VmKxkyAqGUF6sCQqx8unF9l0K/apZIoyjWgbKoR18bKE3EBJ1KR0BdR8HMTyZcSrIdhCcqSGLspINRxNda7ow33PajfiNHQxOJIQWr9D8IIufvsK6bqREJc1ZjQ9bxDFChuCzMDu5x1udT21ijnzZPEYmlXDMTv8rQp5RlcJD79+g0iCpOj33xWxuYIBTbMl66OH8oc9qx5HbLOJQgZSEj3hYUoeF6RYWW4dT5iKExBN3ieKRQpe/HT6EN+lteQsuSyW+vwhRz5M3ZHLefwhQdNeRncxAZAIDkEEA7woH5QRZcknXxhphAYPcOeZsPrhA6xpBW3IyLElSEl1B9PHd5+MKfMKjtsBuu2vSAYxIEpCmqFk7rZAK9TEUgNR28I59OSlqt+MDrAeUsByzta43+H6RCZNKiSdSW5QIIzMlVASH5AvEUrBqHA0azcH0gSj+4b70goMG18ocrYZWYCvUuSX13dICoKajHcD6PEswCUg3yuz0clVW+qw9ZrfF+4dh3EETNI/dpIqHO/lS2sAFbecTkzimrJKiphw2Xv0HiIj9bKoxfOUHAzwkrAJ2mKk5eYqTx3WiCgakmIkETJahUBYfiCQ9OUXrU9K38jQWYyW1cPY684ZKkgpUWIDkg9PCFiF5lPe3oIGUPR2i4vdC33Q0EWp6kn8bt6RBK6gtbfDgulO8fXyMQyCFB3HIEziM9iTVuopR+MMmYHq7axDs/ZU9wCVevzhLrSjconTaqkFEjODZfu3Pnr9WjN9ryMiySzAte9HLdXHQ7o7slA7xi5BD04H5xxe1ZpVMUApWUEgV5PQcvIR52rL1pLjJtp4ZL2fnhJWGqpmqxYBT3ob24RoJkgKlhRYMs0N6BLDzjHIQa1LndV23dI0mHxYUESypiEuATV1Elq3o0Xp6mVHtY9SObLC8SaIYmlxo30YRkZ0Ek5QhiXpZ28xFWcDnQQbn69TD9oYkCWUBYGt2Ja3O58Y01pOKajy2QllHBRi3mhYKXrSouGOm4/Wtr2fwy1FZop2Fz7zg1BD7qxQZGZ6fW6Or2WO7SteZs5ZOurEjcSCYxi3bpZo1naR1e0l92SEGqaOqtbG1AKtAFLzJBoXD6RDEKGUj0vwicgBARmozOPB47Y2nnLoxrAXE7KiBpFOVNKkpoDY9RB1zUrrXqfWIypZ90B3q2tL+hMXFtJbhUFXiAEJdO8+ZA6U8orJxWYV04afoYktQVSrDZrTn5kwNEn3jplBbi4A+uEOP+T9xUGQZZAtCispRFBCh7l5HTO6pYv94VFaeXpCSodfpoEh7P5RMX+tKxpaUSBp63JTloEuOpfxpDpWByh8d/mAJsBpr+gbziDRjoU1uqmNjzltLWrQCtd72bWhiKQUULHl+DU6xJZZCkONobtf0gUtLJAJ0FOLCIh6tZt9g7BFTfHrA+8JWbOKMN1wT4mJisDWkBTixG15N4fMxrOrQ0FK4r4laytASzeNbO39Qg7wl0D2JBAPMp/CMv1auFpXQIiJh5xGZOISSAxAoWh8rAVrrzhKFCOEbOnD6DuSkgiWlZPvAEAsCzCp4PTjEe8PPl+MN3qSAh/cASHFaB6+MJJERoNuCb5HRCSsqKqnZA5AOo/OJZjCGKCc6QnMS3DdeIpWdzQ9ObdquBDGjVYW8TBloZGZ60YbyflQwNQeGxExKwEi6aW13tEalppR+yqAzlEAm5Yxzzgc6VmqWZROgcK0DmpaCY8qCUgZQl6qLsGirKxDImJCnKkgAgFqF2cgaAxx/qG3LCyaRTSwU8SgjKEswF8yVE88pITyvEQkgpIvcENcGHlIUVAAX5hmDk9BWJypidQ7AkcSxbo7Rk7NjTT1pIYDbuTuBJYcPyPTl44HekukjV+dQ3WAyZylTFKT7rs7aP8AEDwciJdpOlkhJqlyKvtbxFb/AEKPfuZxhTs56sOgSwqrlRsWokCg5lQ8I6kwFUtBTuB8A/rHKG1LSAWIWacFMHHENURKQJjsgK+n+QMVCe1OxyVmhwqXWlwCHe26usLFgFSm41Gp4cNBwA5RWw2KPdhYpcHnYsCa3ggcptr5NHUsz3exi1TIyU7IdQFNX56RdmEBAb3lO5F8rmm6p14RWmJKQH1Dtw0gCJz1fxbdFtKVZFVkki96n8IsS1MlXQDz+ubRFEolKjTZIfhcv4Dzga55JdXKgoGDaatA5J+n3HyDUsbvKFEs43t4/hCh7WAdPaskCs1HRQgsvtPDlCiZyARQAqFXBrfSPNYd4T1G1RfSR6DJ7UlZQ85LjesPeJDtWTrNR/cI87eFDjqNKg6aN/Nx8k5f3qKLf3hQEFz5wZXakjSaj+4R528NExk02/IdNHoie1ZLj96j+4Q//VJFT3qKkn3hqY86hQ97ux9NHon/AFWR/qo/uFOsQOOkKUAqahq1zihAcXO+kefQnhSm5Kg6aPRZ/aUhw01Huiyhur5vA09pSR/6qP7xHnzwocZtKg6aPR5faUjIoqnIzZgwzC1vkD4wIdpSP9VH94jz54aIg3G82GxG/PaMn/VR/cImvtGTpORb7wvrHnsJ4vqMOmj0KX2hJLvPQDo5FeoNIFh+0pQVWYhiXqoNV4wUO8TKTYbEbzGdoyCls6VABmCgTXXm58o4+DxKGU6wAGYFTUerDlGbeFGXTT5ZSVKjarxsrulJC0FZDPmTagVrcgDzjhGal/eR0Mcd4TxEdBRumEVRsZOLktlCkpcMr944cMoEOBxFzeG7bx0tUxSkLSbBwq7B34X8ox7wnhft43dj7mhwolrBJmIRlrtKqW3ACp+tXHYT2pJlyzkWlRL0zAEZiSW8SHv4xhoTw5aClyyZRs10vGyxLbOh31I0YnqVP0Aizh+0ZQcGYlmptDS0Yh4aLUElQnBM3GI7TlqUT3iS1BtCwgKcfK/1Ef3RjoaLiqSS7AoJG6T2rLTLYLS5VUZvhANfEwBXacslytNAwGYMBwGkY14aEopNvy7BQSNl+3yf9RPiIUY2FGm9j2IUKFCiChQoUKABQoUKABQoUKABQoUKABQoUKABQoUKABQoUKABQoUKABQoUKABQoUKABQoUKABQoUKABQoUKABQoUKABQoUKABQoUKAD//2Q==;" vertex="1" parent="1">
          <mxGeometry x="180.63" y="370" width="58.74" height="44" as="geometry" />
        </mxCell>
        <mxCell id="hIM_Yc48U5NnjwSIPtRP-18" value="&lt;font style=&quot;font-size: 8px;&quot;&gt;Fuente: Google&lt;/font&gt;" style="text;html=1;strokeColor=none;fillColor=none;align=center;verticalAlign=middle;whiteSpace=wrap;rounded=0;" vertex="1" parent="1">
          <mxGeometry x="319" y="417" width="60" height="30" as="geometry" />
        </mxCell>
        <mxCell id="hIM_Yc48U5NnjwSIPtRP-20" value="&lt;font style=&quot;font-size: 8px;&quot;&gt;Fuente: Google&lt;/font&gt;" style="text;html=1;strokeColor=none;fillColor=none;align=center;verticalAlign=middle;whiteSpace=wrap;rounded=0;" vertex="1" parent="1">
          <mxGeometry x="93.50999999999999" y="422" width="60" height="30" as="geometry" />
        </mxCell>
        <mxCell id="hIM_Yc48U5NnjwSIPtRP-21" value="" style="shape=image;verticalLabelPosition=bottom;labelBackgroundColor=default;verticalAlign=top;aspect=fixed;imageAspect=0;image=data:image/jpeg,/9j/4AAQSkZJRgABAQAAAQABAAD/2wCEAAoGCBYVExcVFRUYFxcZGRoaGRoaGhsaIxkfGR8cHBogGR8cJCsjIB8oIRwbJDUkKSwxNDIyHyM3PDcwOysxMi4BCwsLDw4PHRERHTEpISgxMTExMTExMTExMTEyMTExMTExMTExMTExMTExMTExMTExMTExMTExMTEuMTExMTExMf/AABEIAKwBJQMBIgACEQEDEQH/xAAcAAABBQEBAQAAAAAAAAAAAAADAgQFBgcBAAj/xAA/EAACAQIEBAMHAwIFAwMFAAABAhEDIQASMUEEBVFhEyJxBjKBkaGx8ELB0VLhBxQjYvEVM3KCkqIWJGOy0v/EABkBAAMBAQEAAAAAAAAAAAAAAAABAgMEBf/EACoRAAICAQQBBAEDBQAAAAAAAAABAhEDEiExQVEEEyJhcZGh8QUjQsHw/9oADAMBAAIRAxEAPwC/qMEXCVwtRjpZzihhWODChhAdjDXjKmQqwG4U9g5AE/GPrh1iE9uAh4V1aoKbPCoZuSSPKALtPTCbBIfcJx4JBaRmIQWMEmSB2sCZtr3GJIYhfZvgXocKlOowZlBE3i5sLnQTGJCi5YqP0wCCTDMR1Gw6jAMfKuF4SDhLuACSYAuT0wgFE4FTqq0lWVo1ykGPWMZ57Qe1J4io1Kk0UlYr08Qi29jfQek4jOX81IIdKjSpAGXUfsw+mJ17kM1eJ0x3wGP6TiG5D7Y0ajLSYZHNpEZS2kayJ+N7TJE2wYHkZosae5F/5R+n1GEvwjjb5Yl8eOFrZXtoggOuCgYkaqg6icN6vC7rfthqdkvG0DRcHpphIIUFmIAAkkmAANSScV/m3tzwlFC+cttCqxn4xp3wpzS5Lx4JzTcYt1z9Fg4/iykAAEm5kxAxG8HzuoawRqUIxAWorA3P9Sn5SCfTGZcx/wASab1GK8NUcAmGPEOkiToALC9gdsSfsNz1eK4hRTpcSvh/6jrnWose6CSxDakHQm2OVznq42Or2oqFt7mo1jgM4UHDCVM/SOxBuD2OBlcdsao8+V2dLY5OOZcNOa8yp8Omeq+UbDUseijf9t8MW49nENV9peHWp4fiAnraOn0xUub+29SoGSkgRSCJMloPfQfX1xUHpITmy36yf5wnGT4ZpDT/AJG50nDKGUgqQCCLgg6EY6TjKOXe1vE0UWmpQoohVZZgeog/XFk5R7e0n8tdDTP9Qll+P6h9fXDpklyjHsmBcLxCVFD02V1OhUgg/LBCcIZ3JhLjHiThJOADjYTOFY4RhgIJx7DLmfMqNHL4rhc05Zm8ROg7jHsTaKp+AgwtcVSt7bUfLkV2sSwIiOgF+u9xb5SnBe0dF2CMfDbKGOeFAJ1WTHmHpitSZBNDCxivr7TUleqKjKqU8pQhgxqA9AN5GnzjEfzv2wVfLQKmwOdw4A3gKQJtvNr9plzilbGXEYjuf0gyIMoJ8WjEiY/1FkjuBJnENy/2wpmiKlWMzO0IliEGhbMYJtsbyMH4b2mpcQVSkG8QODlcRAggkkWhZBIwakxElzWm+emUYZQc1RSPeVYNjIgzHywXgqozFgxIBZdsoOY6W39dox1xTpo+d4mA1RyBMjqbbmALDYYrPFHxE8OlWmnWAvJECTI7TrEDcaYTdAXOi5PpiL9tqxTgq7KYOSJ6BiFP0Jw75dFOnTpvUDMKYuxguEAloPqJxEe13NaNTh3pLUDNVpnKRBCnVc95EkARE62thtqgMjRABlbLl3zTfvMRJ1M+mEVOZKDlpGANSJEzqRv1xE84rPIBlbCAd95HWZ1wng5ZgqgA2BJ0WSBLnZZIknGZWnyWDl/GKuVFEaFzaWnQfH7Y132H9pxWoZajf6tM5Gn9VgUb4radypxhKPkJEyZMkdsSvIeY1lrKpc5CpgSYAuwtpII1xEnRthhqTPoihxYO+HAqDGX+z/P3zFWMgD6Afe3074vnB18wB0tf4a/DAmDH3EGAe18Nv8zlLk3C08x+pj7fPHeJOZWI1gwO3TFc5jzEhci3qVXBjsD5F9CY+AOG+BA/8Qavi8O9Om58SnlqOg/WFBLAx/T70f7Y6YygV2JyH9QM+gBJ9dPpjaeE5WlOA9Rcz3qEm9SdVHa+g7YxbjKJWpUpGzU3dJ38pKmY9L4wzJJqR7/9KyOWDJh7ptfZXltEiAIzHXKCQJgXIvtjbf8ADD2cThuHHEswNSqguD5VQlWUDYzAOaN49capDIajsCyMGWBJyw3kzEWWSB64sPJ+Yu1MoT5QzMqahA0mEGwknSMaxpNJ8nlZIznCTjxHkuvMfaviadaooytDECVi0COgmN/TbBeUe0zioGqGVc3N4ssAD4xf1xSq5IBUmYPcXFiR88dpO077RBIgkz9sbO0eZZo/PvbWjSQGn/qOxIC3At1O40NtsZvx/MXquz1HLudTsOyjZRsMR/PuMAqnNJZRBA1JbzEk6aED54jzzMf0n5jGidLcpKyZFTHKldV95lE6SQJ9MVziubsbIMvfU/DB6tHwUk+aq12Y3K9hhORookvxPH011a/QA/vhuOZUzo0euKyWkyScEfJFtcLWw0ounK+eVKGbJUKBxBgwD0+PfGn+zfPkq0XrF38JAASQCAQBuBJY6kbT3xg3BIzoVClmF1jXuPlfEjyDinSoaThgGBOQyIIEgx6A/gwnIHB1fRsHHe29JWypTd+5hAfTNc9uuAU/bLLlFRabMSBNNiVE7Ene49O+M94ijMa2uIvqZAjtP1wouhOUzI1jr8N++J10Qanx3tNRpL5mzVALogY36SQPrHwxXaftpVdycqIog5YzEjudgb99MVKglTMAPMzMAgkSSbAsSYj+OmBe09QUEVFqCozg52Uggt/tI/SNNfrjWEoppz76NYYZST645WzLJzf27YEZVpXknMrNGkRe2OYzGrJgaxrvrj2N249JEV5ssPDtqoPaZH/xN++HFJIHmAtbNPy1/tocKfiKamBTkHoOnbTpefhh146EFhf+rQG19G37Y8Jub4TN9BG16bHz/ptefe1iTNtcERGygHXr0v8A8YfmqkgeaIsMl4PUaC+OiuAws5vAy0yAoGsmDGp6ThqWRLgNBHOAVJWRAHmN5HX7f3wbgK5XOQ8ypBi2ttrnpiWbw2BGV5INyl4211w1D0qaSadRj2pwet4374I5J+GL2yN8cspXzZZDASblRsD2EfIYRQqFVJkuxJkToDFz0tG+JipXpHzCg+0kpcb9JJ+A02w44Ojw5Zj4VSTsabwfUERbbD1z5aYe2Nq9V2K5yY91JNgAZgdNzhvTq+crPSI7zpscWFnTKZpMwER5SfW2nT1wqmtNRKcObEADw4+cjQXxm8mR8oFjSM547mNWnUYAggSsFQwyzOUgjScNavNq1RPDzQn9CKqKRO4UARN4Prib9quDiu5yZQ3mW0a6/IziIpJBjHoQdxMpSd0xfB8NCliQSQQROmv5OJTkLTWI/StNifiVAH3+WGS28ojM1lBMST64leQ8Iaa1cxBdjC7DKk5depJOInyb4X8WS3Kq2SoCdLZu4Bn9sXfgeceWAZkDMQLg6gLtCiPi2MubiKiyGUaEjVZB0131tif5DzEMg6aX1J1M9r4SdDlGzRuXcwvJOILiuCdOKLKXYMc9MKSAVb+ptgIy2v5cN+XcQSw6Tib5tXKcMtTKGNN4MkiFcxNrmDli49RjTlGdUyS4Om6g1WYaRNsqjttAmYGu7Yw/nJerxNerSBdTWqFWBDFgWJBWNREd8XnjKo4mpnrVKj9KZaKa9CEFraycQXslVVVq04QmlUNNVqZQVyzJBmbzH/p74zyp6PJ0enzzwz1RZE8q41L0nQKSTmlY11zg9cNK3CtQYMJ8NiQpOvofh874t/N+Dp8QGVqYpVMvkqkgkGeikSD6nXEdy7galNHp1lWtSYRCHzLFwyFv1X02gY5vlW53Q9TFZNaSV8rp+TnBKtQTG0E62mT21jClr04VlWFm5kxADSR6YR7Pq9GufDPiU7ZgV8yrvnp+9IvBWR3w/wDb4mrTo0KUZ6niMGlYNMIxbMQPKJgT2xr6ec/dSe6OP+oelxq54X8Xv+PoorUX4qq9QZUplvfc5VGyqOrRAgYd/wDSaVMAuGc//kPhKf8AxW7t8hOGXDc0CoFeUamMsR5htCDRD/UxvJOGfFc6dpywpOrCSzerGWP0xrN5JSfRvij6bFBSe7okWCeIsgKqy0IqrOUEpYyxGbLM7TgHHVQxlv36YiODc+ICbkkiT1YEAn54cVSQ0HbGkI6VVnFnye5LUlRziFuB2H11nAhT+U/n7/LBS4Ouv7/k4G76fmw/vjSjAf8AKDlO19mJWdhLC42uN8WHlreLUXMWypnZMxLNTK2dS2rTmBE4p3EVfKFGpue0afzjTPYRvDoeI6zUqwxMkCAIWPUCT1J+XL6i1ujsw5EsbjW7AU+BJIIqEAG5gzpGvw2xH8e6K2eorAX9xBc6ktEW7kwO2LnW5jOiADfzfb8GK37ZurUl9+DUBY+ITYqxIEggCQDpsbYyxZJSmlIwePSrK1zfjj5aiVIYFSQtihgESPh3BgegXwatxQmo7NkBbWSQosFn4DEZznIqqUJk9w1v/avTSOmLF7IF2pJUpsM1MlChFjq0ZtRIfp9sdnqJur7QY6ScehryDlWZC9yWjoYG33OPYkuErmgzqAygmQpYKVF7XIkCTBE27zj2Ob3JmjjfZPDicxnLEWHma+sTbBhXMDyjbZo/PSPhjlDglgk0hP6ZIEdLxhwOAJvFhFpG3eJO2KqYfASnFPM+HTPpmP0nCf8AMEmc9MQbkKYB+M+mDf5UQJU7SAZ13wujwlIfrqtrAgwL207/AHOBRk+wenwCau40af8A0j6ALMHHDxTzlmf/AE3+ZWI/NsE46mEYEs5JEQGUW63vAE/xjtKrNmABAEzDGNjrG0/tiW0nTYbeAtDjAfLkaRrKgzbqunywteK828dPwW/tthhWe63nzSLmDbYbWH3OFJxNSSodXAEsd1J1ib6zb4bxjOeauNxrGmSVXi2E5ZjuB+9hvgq8U1xIU75gD8AfycQq8ZqpzOzA7BSwkXEnW4v12vGB/wCacGCAJY2hlgwYzagTfYYh52w0Id8xqUaymnVEqpIk08hzCbqwveDpr3GKn7S8Bw3DU0qrTarLFSPEK5DfLMDcA4sBrljlIJXOsqwLBRqT3Okf3w29oaGbh6i+HmsPMIIMHMbDYATPQ98KOaWtITjG6ozDmPFeI+aAuwC7fHUnvg/Cc4rIpVWsf6pYj0nBeJ4IDbDRaUEjHbGnsxTi4qxVfmlZhDOxHov7DEt7H8TUQk5WamWAdoJyMR5T6QL9BGmInw5MY3L2F9n1pcJRIC5imcyAWlwGF7QROLcekZp9kbyOuCR9O/8AGLHzPiVTg67uQF8M66TYLbrmjFW9s+ZUeDrizvUcFnRIGXoxkwM2sep0xTube09bjHp0nXJRzDLSBm5tLsYk37AdN8QviaaNW5JUuYUywZmLGSKVNQzZm1lwPSwJGmGfI6FVOa5Xin46swAIIYhSRMTDZlMjUTuDc/MeEK5BkFOnNmgg02AkEmYH727TE1Vda3CVyQr+LT/0zcglhLGNiV93WPjGuzRlujUaPJiRfWJvmZfgbE+uB1uVxERB1AVhPxmdxib8SmSfOy3sACpi0ifXpGHC16bLAZhfp33PbGftxNNTKy/J1YliIjQglShvJVokaiCIxmlbjTT4mpUqFzTqI9MOBmlSxUMwm4fK29wxImIxrHtT4Y4aoSS1rGBKmYkW2kn8jGX8epqAgZZ1SmRlWp5QCYHlLLGULaABib9tppG+HD70ZJvitiA9qOYJWqKyBbKASAZY75iYJ0EW0tiIy4M9AqSHDBhsbR1mb4cct4Jq1WnSQS9Rwi9JYxfsNSek46F8tzjdxdAjQOVWGYTMFgROXXKRrBw5TiVaA8ZtC2k+trH8tjVfaTk60eWpQqUlK0suSrTdJBJBYkNcZzJIHXUYyjmnChHKqSV1UkQSDe4BP3OISUtuy3Jx36B8XQKtHy9MAqHLrc45mIwNUzHFU0Rab2H/ACPl7V6gQGNMxOwJC27yRjXeH4J6aKn+moUZQue4AAiPl8e2KR/hrwH+urEgBnVVDGAzKQ2/RsgjqwGNjenUAJdUJN4LCbRbpOMJx1vfhHS1GEF5e7/0U5uHJBhgel1Gu2wJOIf2sR14curAFWRgDBE31vffXF/Si8eamgj3ZaCPRcu04qf+IVQU6SK7L/qOTdpEJGx3kjCjjSdkSlaoy7mHEVHWXIOgWwiLmF2AuemLN/hzSqslXKIQMg92xa86bxl+mGPtJy+mnC8NVBytWasx6EUyqLCi03N++L3/AIecrp/5KmSxzVM9QeUwCTkFwDAgLuL3xrOpKjKOzI7juT5yBVohyotZrTrppMDrj2JeWpkiMw2ObN63JE663nHsY0bWyd4bmNKZNNzFpIP1B2vgfGc4pkKAq+8Iug31lhrpYYolbjXZgzVFHxN7gaGN7/xhb1LfqZiZKtNwLgqRtYg9weoxEs8+A9qJcKHtCqmHZpIkAlbiR2jcWHfreJ43nTVGKJUGViTEgkgbyN7DTFW8F6qZqkgKxKAF1CzE2vrlGnzuRh7w1ND/AKbL4hULPnIII1WSCBoL99ZxlKU63YRgkwtTmKPmNSQV973rDvrIk6H4YJwPGq6jMVK5gQA/mC3ny7eYgzYajthXEVaTuVMq8M7BcgCmxZiWBnpmA9Wvhk9RVFTIrmT+gETEH31Pwi/x2zUbRo7aCcXXFR48ygsCzQQSQSYJmRqTMdMeocOSy+GCpfWFiQpvPmGoNrC2PDiAXAWmMxAJDLcbm5F9eukYb8Vw1SnmqedWcxqWygkgKJ0FgbX7i02obUUuCaphkICPlAYwxKmYiZjqBG1hrgvFV5k52tlFiVABOkkHQgQB88VVuH4hXSo1SqqSJNScoO0hut9ug1MYsfKKHjZWGeCqWJACG5Y2O5MwepOH7XgTkjvjI2b/AFWYKPNmJWPiDEx8dDsBhHBUASXEMt1nymemQkmZIZdRppeSvjKXhsEVgwMEi6liTAiZWdZAt1IGGdXhwpK06oS4hSpAiFtEiTcaSDcRfDWNjtEJzzhwpAA2GK0xlicXHn/FeLTKqIyxBIMkjU/HFRFFmIVEYsROWLgHc9PjjfG92xZ1VRQfl1LxKqUxq7Kgj/ewX98bv7U87p8LShVDVSIpJPS0tF8o+ugxkXs1yQ0qqV6tQBqTLURFvJQ5hmJtEjQTPXErXr1uOreHw9PM5u7mwANpdth+AYby29MeQh6elqnsiC5vxHmZ6hz1HJZ2JuSdZw15PVCcQPFUhlPusIg9wbgjF2b2Op0AGqP4lXqwyqDf3RPbU39MUn2nluLqtecyknuUUmfjOCK3pjyytfHgu6ccpplUhp92mSQMwuAIuDvI0gaa4jOCoA8bQLJkGelIWcq5GDTf3QbwNogYiOA4hgmciUAhjrH/AJAX+lxpi4eyg8YI4Bye6C2rqC1yOpuMs9J1jFW0jBJSL+vFUjBlGMWMg/mmCvxCEQSn2+RJ9MBajSC5SoKnYxFvycCVKcZUVI6SPqI++NLIohfb7mDU+FLU3AYOu7SReQhSYJnXbWRbGTHmqE5SgVCBKk51kWkQAV7EXH+7a2f4tcQ4ekigQFOysDJNmERAi298Z3WczJVR6DTDemUaZUMk8U9Uf5LQgSqMrQ40Ack5f/GqnmUSNHGDeyCrT49Rw9NaoAIJqmyj9RRlFtlzQSZI3w59jvYo1adPialVlVwSq0/K+pUS50FpgA4JyvlVXgK1Qs4bOwy1YzAKCS3igSVklZ+htjmf9u6Z2Syr1GlONPt/RePahKVSiZTLmYSyQYOZT5WMR7t52xmHtdynwgreItRSSB/UBqMwvG++xtix8x5xTqVDTpmrTqtl8qZaiF5gFRuDrIYD64ccfydzwlVOLqUqZBBpMzgKGUWuRMNpBmL4eGctScjH1GOCVRMqq0zeBIGvb+2CcvpFmVRqxAE97Ym+V8upsTTq1Mlwzi4LhZACnQAXMnXYWBxM875Xw9Ph6dWgrq4qgXckEQzBhNwZURB/nGzyxcqRhDFLTrfA85VxFIMvDorZswphgA0wRBVIuQ3mmZm4jXGk8n4Ti1AL1JO6s4bLfeF19D89cZV7K8k8fOFgmAXMe7mMEAixOpxpYaqsKvlCiFF4gCNDH3w5ySSiuEFuUnN99dV0TL0qhJDVFJj3QxWPSPucVP214GnVqIr0w+UScxaxm4/3DEmOZVSSCIj9UmNOvXENzbhWrNnY5mAiSc3WwE7T0H7Yzk7jsOK33IuryekQitSRgqhVlM8AbD+SZxM8uejSQKKeXKuVcqxAmd7fPDOhwYMBgCAIGUMvz82HyVwjq3lWxicg7GevXERtFOg9NlNxScjsmbSRqI7bY9j1OtVa4rKALWWNJ749iyShcTXR2UCnSdQBmhS5MCBBA0sTYtpF8EoJVDyKkKNihVV/UIBGoI/vgqU28PKzEKd7j5ddx8rzoNcjKAG8tlMkiYF/dBHebmd8cxshHMA5YZTIMgAQwMCCCZEEddSDJ2x7ieIZFgoJNgcimBJIK5t/nriQTh0QmKlU+HYKqeUxrndrkTO4P1wz4fiMzQCLg+Y7k+8bQWEj8tidxjijxVMMrFFfPTqqrQAAzLlHUTqYvaOtiPQPlyBgfNexmQLCwG3wt/ThbNUCwrBx0KrafegqSSYv+WbDjWOUVFgNliooub6joROhkm/QS0r4Djk6asNJp9iTaw6ECDEX/wCMB4ajXck04uRkawudoJANr+nraVNMtnPiEBYIfMgJAEmwUzaBDQfQXwyoca5yJpSzjYITN8wK6CdRrGKjGnuDe2xK8Vy6tTornAXzZfMQ0If6TAg6ag6X6gvBkkK6ZcrDTJBAj9iSYjr1s4rpSdFD1JMSAS229/TXXAvZpKfiOpqKoYllQHNaxLLbNeb6DeJJxq0Z35I3hKVZ+IYuyqtP/tDKoze8ozCL9RGJLjPZkvRqlEC1mVckZgAwMnqBIkR3+OLKtKipBMsdAYY69Om2HXjBRZHI6AH7YqMPItfgxXjOPLEo/kqKuR5uGyn6OLgj+MJ4DiKdNZPlv52b3qlrKq6gaXJxYv8AFLldJlbiaVNkqAr4nkqKGkxmIIClpK3na84oXCCmhDs2YgAhAD73+4nQemJcEaRyNytkvznmQNPyyBG9sbJ7OcspcPRFKmhAPmYklizEXLyPh0GKB/htW4djVr1/C8QMgTOJyWYnJ02E621xbee+0C0h5fJmDAMynXaAbkDp6aYrHDSrFmy63Q79p7rZTmtlMD18vT5dcY17V1Xpca7MAS2RirXDDIAJ63B+WNM4f2mp1QVDhrSbKBGtr5tvtiH9qqlM8LWXLohKg+aCsNYmTt2+OHTuzO1pooY4l6wMgIgmciKk9Ji5H84u/wDhmCTUCk6IAOkZp9NvwYzrhqpiDt2GNA/w6rgUaskTnAAO8A//ANYTY4ovzeKA0jKI/qEW3k6YGiM2lRYIBswP1Bj5YjalAEf9pWI9DfoIj8j1wrhuApiSKYQzqCt49L7nCsqiq/4iV8tVUGVgaU2gj3nH0vijMoAzOdiY9P7zi2f4j24hAAf+0P8A9nvbFc5TTNbiaNOM0uLW91fMwvb3VOuGiJGz8l4XwqFKmZlKaIZmJUQSBOpM33wLmqU6qGm7kA2LKYg6C4BF7iDrcYavzpkAaorCegU6ka5SY136Y4vOEIu19IiQOt7fP0wpJ+Bppdjbk/CcLwgyU1YuZBqhGLEEi2dUgDsOmKp7ZV6njoajTRe6oFeFytC5iygSSe2omIGLmnO6BEiqtu+kbXxxuMoVaZRqa1KbyWgwLGdo6akj9sJJ9g2mZlVrsD4mUGmIVs6ZxJLEBpFiQCRF7dsd5pzw8R4VPIq00cG0gGLDW9pOuLL7U0ETlT0gVLI6MCABmXMYv0BcgdfjjPeFOmGorkHkaWlcGu+wtQURUYKxzlLiDETYTtfFsoc4pu5prUUsBJG4GlxAxnnshx1NOHXOrMSzMSCNICgXYdPrtBie5YaJqFw7ZgMsHa+kbmQOsYIyaE4osXFV9pAO3ecR9ZNfMb9wfXbBKzyBDfYTiP42u8+VNtbEdNAZ/wCMU2CQRqbdbaenXCWoIR5xP8fG+B16uVcxlYiYvr0mMBqcWLEEspG0Ge8C5I7T+2JtBQ7p8AkC7KIEAFrfIxj2Gz8WkAywn/ax+cC2PYq0FMqPK3qLWD1KoCKxACgEuBbSDlB9ftOHCvSd2ZacS15UAKIt7tiIm9zvbUKTgvMSczAzAnKIHQWIEEafQzg9NyoCl0UAQgBmxnVtTNte2pxzSkapB6vLaTMCzFpBsJUwR7vmA182ne4wvhBwxDUpScxKFcxKPHzggGQ3QeuIfmdCrWGXOAFGksCwEFhK3JgZhaba4huNqOjHxEMj3KiHMWEWLGBmtuYPqb4IxbVWS9ixDha1NCStgRNxItAEz8gI7b4jq/FurpOZAGgyC0BbgwQPKewJ9bYEvHvVZQrOdMpnMGO+eLiI9Yn4zfD0iyHM5yAEwAzDLN8pk+mxxSTXJTdiKALlmWouU2YUyrAhmDG1mVo6icNOL4pmcotIWIOUIJctbNKme/zmd29LgJrq1MPlI8zSxIi4BnzAkje4nFjocAw91TEQZnrMnfA21wC+xPIqNWoMpikkizwxIETFjFu/yxb+X0KVJjkS5GutraHfbAeBoZEgCJ6TI9b/AL4iOfc0ShDM5eRCKseYzF8t50+dsapKKtmbbk6RZeI4wgT/AH+2Gx5k3p8f4BxBez6PUps9YBc/ugWyrfUg312/4kOIqg+VTc6ubhf5xad7k10RPtdzpWoVaDZ28RSshCQCfdgwFsYOu2Mi4mk09saN7RcnUlnapVquBKgiFj/aoWcs9I1FyYxUK9NS7QpAuQDaOn0xMpDUQPIOWeKSLyIggxE9bGdNO2NW5TwhWj4bS1t/Nl2i/wAcUX2X4zwmv4cQfe1HTKR8dbfTF55VUbwwFe21if5I+JxtBqjKadjfmPLKQ91IY/0QIB6gDNBjYnEdxvDp4bLCLZkIOokEbgHLEmYxPcUjSV0DCcw3jSwu32xD85olqRCqQSLlvIsdYMmZgDa9icOU4pCjCTZmfC8K4vpbv+2L17E8IVpkuuUls0HWIESNtzhrwnCGmIzyCBIuIOJnlyKDGsmA0a209LzjiWX5UdvtUiapn/b6GMdRyTqAepHyj6fLAUMW/m/pj1U5rywifdMfHGlk0V7214LxK2bMVYIB1FpImLgydfTFZ9mOBqJxIzU5JVgtzP8A5CNLA3ti4cWQxzAkgaybgHQSJv3x3gmAKiFOYkEkBoB69u1tTiIZKkE8dxHPhuFhSVaROaLAkE3B1jTCq9MMAjKHB/rAI/PzphpW5GkbLF7wQoI3vBBiO4w34o06BKsxHQLY33Eab3P/AD1ar+jmcGgXMeW0gpGbLmUhRGYDfyixA00O3fDDh3ampyVGY2guARb/AHCWHaRh1zjjUNCUepnEEEhJOxzMoMwAdDhhyEJWJBTWYMliCNmEgkW+e5w20TTI72j5zVqIysGIaA5JVhAMiLdQP3xCcoys2Vt9MXDmvKlV2TygBM36l6f1SNZt0wz4DkSx4qsBBMdBHeZFoi2MpSrk0jG+C5+zPCIOEpU/1ASSBB8zFiJ+MYf8Ry7/AEwtN5IgDOA8gW803Prr9cMeScOTTQUnWVADCTPUxb6jvffEt/mChIYkW1Ok6bjthUik2RT069NT5bXANIGVBkyFaRMnYYccNXcOAyudPMVtPQzv3AG2HxeRYjNa5Ftex/fCakk2iJvfT5d8GkLA13VTJGpExc9r9JwukFYQMp7A6D0/tggB6x8z++FOwAmQT6EH64BjVqYJNl+f3x7HSyt0ka/3x7BsFFQ4pEDjw2Em5hTcA9rjQCwnTXQseB5kIdWAMsRldssdiCCRaAVEaHS8uKlCo5IBSG8kxdJBjSZGZg0dYOA8Lw7kFnV1YlQQVGZivlgB1JMA+oBPS2SWxbe5IU3dRCAKqiHzEWvEZgMxNyADqMO/+nJVpFSgC6rNmObWYmB6nDmnQQUwbNYMScoItALCZAIyx2Jvjn/UFcDw4BvBIJUke9cC9ov/AHwtKQETU5OPLTKrBVvIPegEaMLW76ztiEq8Wy1QaDyqgqEhvLmMECTJIg6kgd5xba3MgfDylWqZT5VgGTGWAfjqZ+GsRyblzoDKQz+9Npnrtf74NVIKsPynj1PEhaAaSB4rZApLRBBmwAIubXJjFy4LxACahm5NxAC7X10wz5FwvhsS4ILb5vjAgYT7Tc0AUqhzsYypG4OpvpvfpONE6jbIe7o7xHOVIKeItM+b3yosDbyyDEERMYg+DocP4hqVeKWo0z5RYAzpB+B+Vt21DkFSqWesS5iFWwyhjMAD74L/APSwIKlcom4DMNtLHSNj8sZSbl/BtGolg4v2g4UCPGBHRJPwBmI+OGDe03DH3nygdg09Btv3xGf/AElTAsgb0DGPUzb0w75f7OrTqK601UidU2NrHWfUYFKXFv8AYKj4Q24jm3DM+c1ondgDEf0iYB9P3wnlvL+Crs//ANxVYASWCDUmTNj3xI1OW0lcQiSwJJCgAH4Df6ThIoKDYKIGoGl9NPt0wpSdFKK5F8PyTgEXMalZ/Qa+gVCcG/69wVKVD8QSP6lJgdYIUzgFMkhjmynaLT6xgvD0pBva+p6WJxEZMpxQJ/afgCDLVMwG6Kf3LC3fCG9q+DamsrWeCCxVjE7Xj1tg/wDl0b/uERGpE2F/weuE06QRgApi4MQIJ6jpH/GHqf3+otiPb2m4QkMKVTLe0z8jGHnC864ZnEcJXM7zUEk7yco364IKQICqCY1O3SIwZoUSwgACYHyAOpMn74KTHqZ2t7WcIhytw9UHuGt8j9sNqnthwckNQqTmIiKl+5BI+WHgoqVEgX3vN9Im+G7cKAQoEE31+f5/GBr8/qFieJ9oqFNZ/wAjVg9iLd7z88NB7acNmOXgz5RIhTM7z09cOa7sBBMdAdf5/DhqaSk+u5tiFXj9ym2eHt9SOvBkkz+mZPecK4f2hSqpI5bSK7Bwok9sy79beuFjhQP7WwoIF1IHSSBtb74vbx+5F/8AUAHPqYbN/wBMXLEFRSpGOsGJO1gYwMe1tNZ8Pl605EFlSmjDcWjtvh+KHe327YRTXLpB/bFbL+SXuRPG5q4V2U6Dy7qTrIPaL/S04Jw/LmEPtaFMbHYCSYAMfHEmwHpAiQDH5bDau1UECmQsxKkC4sZXSbYrXZOiiS4QKWzDxJ1ygRfqpPu3OvY7Yl+EBBOds42kXHYxA1nEVS4x1UDNGsnUA7Wvc2t97YO/M/JmZCRoWVbAx22m14xcWkZyTYrmNBSQVNRSGBFyVJm0iY+GO8HVAWBcLYx1+l8CTmClQRDKzACdRMCD3mfhOHSLN4+EzirvgX5EUyxJ88yZAYAR6RfBtPeP59sNlpXm8biI+3xwZSNJ+uCxiii/0/L+wOPYSxj+2PYVgZ9xFRjVWkqgORJnzETcZtspBJIH9sSPDUmSohzS2c50Y5gM0kFLSLA2JNo645xrOvENNPM1lk5AoNoJn9MEaThzRSpUqipUKq0yR1METOn0xLY0C59w71WVP0iGAVQZG2oO8/TEjymmKSZVphRJ1XUDfr/ODcKnuqGuLEt+reCdb3+eHlXg1ZsxVQNhr88RUnwVaXJF0+WqzKfDWJm2o/8AGdBbbviZFJbFhA9BEbYPREmANAO2sj9sN+PrqoO50A6noOpxooqK5I1WxnznmJUqEQkyLSbkyBI67wMG5JwHhrncBqriWMaTsO+A8Py2GFRoDwYA0E6/HErVrlRAiSN51tFhrgiu2D8ILm1tc/DCQwM3WPy2mI6szkAFvMSYJA/bbf8ADh7SpoRliTAlTcfUeumHdhVDhEbsRsJthvxSFpGcA6iBP9ovhwGt5TAFr9ra/wA4ZiqSxhhbos3+RnBLwCGXHqxgm5Gnoex3HpbEaaxm8nrfpic5jTBM2UmBJymekTofh98Q1YRbI285rT/e++ObImmbwewRa4iMg1gsWJg7mMOeGcWiDtLWub/vgFOqCNMqg33HYelhgw4or7p1GkRPw0v2wKimEFMKsRLHW0bRYEyfWMBYN0HUX/IPwwapxZYMsCT0lT9/p0xxWGUCLz0F/U/YYbpkoTSdhstpGvTqY7gfE4LQq5lJK7yQI+J/L49SIE9d52xygm0EsTNr+gH1w0qGOKbBhAI00w3ZIEwJ0+/8n54NSpyRJ63P1FrT64CA3TyyV7HqI1wMQKowzSJnuPy/bHgonod7CJPphfhybAkTv9InX44AwPTte3rOJGKK3nX1JtuT326Y4zEDVY1iSfpGEPbUa2P5tgz0iV1zD1BInD5ECaoIgrPddPQ6XwPOGHcfg/PnjxUTl6AHXYz/ABjlZJORRe14AAtffpf54VMDhZlMh4tYWt1sR9sdXhfEUkS5Bufd1Gt/hpgi0Mt3amy6knYba/DBKLsVGVhBJkrediJ9Z0xSXkTYinTZID218wANrXmL7G/Q+uPNzFqRdUEgmRYEwwmbm8Xth1/mFiHUEAa2k732w14zhFIDUxIN8pjy+h130vri/wAEfkRylASHmJJMWAPqBo2thbEmzn+kR63juBb64rfD0aoqUlK+XOpkxIAvEKMpA6kz6HFoFM9tO384qJLOcLWA3jsenbfDtkm4wBEjUH1wVanY4tCEeEf6vv8Atj2FmofX5Y7hUBWlJYAKo3gnvckk74NwtASDUuemn1jBaFKBH59cOKNIbCcLR5DUNqlMkjKxU7wJmTpOuHgc6Xjed/z8nC1pn0/PTCXfKNpPUX+F4nDqguwXH8WEXWPMo6abDudoxzgkzEVGgW8i9PXvjg4aCHqG8+VRov8AJO5+2HzNpB9ba+mEl5DjgFUeSQWjvOvW+v8AxjlRBBH1N4mJntbCzUE3164Q9VZjMOms/PDYI6OGWJYyT1nTpgtQEfqHSwP2jCaZX9Mk67j6xbCmcX82Y6RNhrr9MJ7UFgqiFhBII6BZn864E9Z6fvCRoDprtbX4nDuWI1APYTiHredm82ZVBBIJN99N5+2FPbgqO45qU1dhaLfqaCd8BrCALQ0n0gWMSf2whKWViSSSJInWT/wPl64Xx82UDzWm+k7R1nfGUuDRcjYEFgAJJPSCe2pjbDpRrpIEaa9cD4fhoJJieoJse2x+OCLIM6iZvffriVGkU34FxvAJ+Aj81xxOPJYgketjjpFz0AJ0n5/bDfwXAMRBnSe2m/164L8AqHOcH9UnbSPthy9bLctedRr0wxoUbX6iJHxt0wdyQwE3v8PzucUm6EzqnMTMybn+T1OG3NeNp0xJfcSFIJGbQkT1GHdxaRF5JG/wwDjaStYgG4BkAjFNbCFVUZB7xidLfTAUedSde19vwYd1CCuUX6nSL9sNgoXbUyIm0Azr6jESVPYaewJ6ihsismaYK5hNtLWIJ6YTxIIiPtr/AH1wjjOFWoVJRWgEExfbQ/cemDUCAoGoAtN4iNyZ2wNAmAT3pDD3YAiNYv62weoTn1GWZAInpEn4ToMALCYIAPXXX4wMKZoIEkWOs29MJSYNCq6S4IBhRPqYtE9L4Klc5M4lZmft+DCaRved9B1mY+WD0x+n/b9Z69Y++LtksHxrSoErJjMTOgPr2witxXlX3YUTGhI0kk9+u/fDikin3tbftp8cB4qiACdYBPl+Ji5gD6aXw9xWgdWmagDBVUyNr9dRvpp++O8PxNVQM2UiLkSQD9Sbf7flgHLuI84UrlzKDrv/AE6ROp1kx8pNKQvI9fz54asTFUeNJN/X+I+2HVOsCOnbEDxnDvSDMF8VAZCHUDfKT9sO+FdXphgCB8LDpKmBHTDtololB6fbHsRjV4tMerR98exWoVHOAYsFJESAb2+mHvEcRlViI8ontHw1w3Hu/D5emA8T7pG0fPXXA20hNWPWrRbXvhSJudR9PTvhnyyoSgJ1jBajnrikLgI9ToPWfvgSV5mZEGIHTthS74DSvrhMpHqlQAQB1v1noNfh645y/h8qiRmaLnHS2VkAA9dx6YdfziUhihIGn7YavTKtJtclRC2kifWROuPcVxDLlgxfCvEJ17fXXDbsEKrOzDsBoJE2/VvF5+WAUkVIRAFgRA+ROF1Lm/WPh5T98dZAqiNyw9AAIjEvcpHP1RESAx+H59sN6QAaZvqLaExpgnD1CS0nSI7a6YFF/n9jiX5KQp28xv8AO31/PpjyEBYEC8mABdtTaes4Sl9e+PLSFrYnsYVVi2Y5ZnQyY0nCmg3J020PxwqpYLHb7HCK1MDQbT8YOG0AtAptNzoJt+d8Ep0SAJ1jqPphpymuWpK51OuHsT8RfDSQNiWSRYAH1wsI0X+N9ceqafnbAW9/4H4+uG9hcg65BbWLXtrE/TA6ZBPmbroALHaB9z1x5aljYajbHmfyzv8Ae41xJQqvEWn5H98DVgP1H/2g3+JGFONPzY4UaYwqsLGXhnUwCTfBahGhAAg7fa+/8YW9MMRtfb44b1xc3NgI+mFVBdjjxxYKvzZZPTW+FVGgee15IzdZO38dcc4BRm0Hu4TxfEEZQIgwTbW2nph9WJ8j1DmUFZvpMbfO/bCmOgPygba9sB5esEAaZM3p2Hbtgp/q3j5TrGNFujNiGoA3iD+ad8LM9Tp8ccrDucLLn6YdADemSIPunUdRiF5jwWUl6R80Qw0nvbeOtsWBv3xE1hqd4b/4kxgaEmNeC5nTy5XkMtiGicewjj+ER8pYXyjHsIds/9k=;" vertex="1" parent="1">
          <mxGeometry x="319" y="374" width="68.14" height="40" as="geometry" />
        </mxCell>
        <mxCell id="hIM_Yc48U5NnjwSIPtRP-22" value="" style="shape=image;verticalLabelPosition=bottom;labelBackgroundColor=default;verticalAlign=top;aspect=fixed;imageAspect=0;image=data:image/jpeg,/9j/4AAQSkZJRgABAQAAAQABAAD/2wCEAAoHCBUVFBcVFRUYGBcZHCAdHBoaHBodHh0aHh0dHhwaHhwdICwjHR4pHhoeJTYkKS0vMzMzHSM4PjgyPSwyMy8BCwsLDw4PHRISHTIqICkyMjIyMjIyMjIyMjIyMjIyMjIyMjIyMjIyMjIyMjIyMjIyMjIyMjIyMjIyMjIyMjIyMv/AABEIAMIBBAMBIgACEQEDEQH/xAAbAAABBQEBAAAAAAAAAAAAAAADAAECBAUGB//EAEAQAAEDAgQDBgUCBQIGAQUAAAECESEAMQMSQVEEYXEFIoGRofATMkKxwdHhBiNSYvFyghQVM5KywkNzg6LS8v/EABoBAQEBAQEBAQAAAAAAAAAAAAABAgMEBQb/xAAoEQEBAAIBBQACAQMFAAAAAAAAAQIRMQMSIUFRE2FxIjKRBFLB0fD/2gAMAwEAAhEDEQA/AAgj5iBlA96S9JYKzNgWDdSG5QHPV9KcIdBxFKAlgmSpmlR2DsG1mGEuvvasBPmQ32+/OvyutPoTyXxIhTBr9WMfpQcPCUtJZJ+GkpfT/SSDJtzs8UYKSykMWsk7FwVEnWMwZh8z/TQMkEsyiD4O/wBW9723rUkhSw0AHd5BJ9WGkvzoqFuR/T0e513LezUEcKInQkBxqCxu7CfJ6KUg2eOUu830jaJ5UtU+Alu4zlMas0S56Xfao42I0AzFg5+owGd+769TQcbiCycggnI5b3r9nqwnCypcJbfqHABPQDna1Ne6m9g/BAJJktyuSXnWbay9SSoltbWESS0gbn3enUcsmQJM3JFtgZFDUpSmbuhn5x+Wb1vanKiglwLy8EHxA1g9KIkEiCGO0GBueQ/NDQhgQd3LTJbW8R4teppxHDMzs/J3jws2s9DKGThak/cAOJHkWvbwqIKQLgO22ntos4qGNL94OflYAjqAfmn9IqYe9tQCA/pLAFvGtJs4xMwcAkdPN9j751NCrjKQbW1LZtNz7ehhRNy2sHUdD+07XTFtEvPiDYvyFo2qaXaSmbo5Z3Ih/NmkaNTFQGly7ae46+tMUlySReILz1G0H8Us4jvJmXezh39Rf8UDIDuSC4VEMHhmhtdbRUsl5Hp4mJLOQH2imSo3aDoxO7iB7Y1FLgkqKiTYKsBtAG3P9ayIUAfksDPLa/uTU8xMPy/T/H2moEKIIZr/AElmltNgfv1fOTsnTSHmS4D+9alElOCCR5S0D7Zd/vTmC5E+D+GzXP6zSQsQ433ezmNfWx5VMr0F9pi7faoBBbvZ5F9R4amaIWJBJHLk/TnpUUpIEgDWHI1AZ+jOwcvU04QtyDs76aez0oHw0G49SH9NJqaVlnLFnnfnzvQihw4LXvHqbt+RREk/UGeG6tbfX3fInmjZ9bXt97bmnwyQRBbn4XOkPH61FkkljoHZUMC9rPemV0Fwz6FiAZA0JtodrQGVh63n/A21bWlaxMeWu97HntUCrcGHsDry8vIU6yGdj+1x7G1Ahic7zt6PSpkM1leAilU0imkZhLsY8mHm+vOhFZWMqYB/peTu+uvuabvG7NAADgBjF9wBO/lSz5Qw12lhq3iT6VvTaQZICQQVF7GCWJEty8QDSyMAVEl5LsQ+sQNT4erDuuX0tsSzsN9upp8jEGLaD2Rvd5FUMFNsAxckAuCGurRlGf7oMPQFviBpy6k/MYADtCQ2YzvF2oyypYSCYS53D8rWJE8zuGmqQZ3ABLPryEMPIcq1vTJlYYCcqTmN3YjvQ8M5gO7+bVJeKMpN3sOctEON+oqOYOkXcxB6udHyi7MC4qPDo/qIBBLCQQ0z5O39vIgFgeQknM5d1QLG0Q2vUUYE5mAe7B9A3ebU/byplrYE5YEABmcMYEb7NAqutZJKUQHLklnZ/E94+b0nlLdDrWxYs5GpAYy4ixkCDD+NNhq7o71u6wDNoQR1UIuabBWECC/Te5s0v/4nxMlMENHm9gZOloGx5MErFwJ3+adG5O2vi9DWoQl4MMnvSHbwbNeCza0lkaFy0AM3jyYe3qK0PI/ck2ctO/JuVIEt9WA5ly5Yuwd7b2PkkgMReWO0btGw2hqitTO5YCwD2a3JmP67SQkvIbrJ3LAWDKt0M1WkmZmDctDLEgFwXLhottUs6rubadORaHuZmmQQYzOWIjnOnQfq1KSXNoki25O/WNqjKK1EP3jABF7AzADlmct5UgZGrSHDMCekx1uPCSUBJBAkkX0BNtTct/iRhZN4DwAQGkgOzhoZ/wBGqiaFl2BmXcaxHQsfzRHh9GjSHGpGx53PM1DIZOa945ADqzHz1iiTdxrPzEiGPOwjp4yhws7HSXLdPAi1/wAOlYiJuIcwRptamVm5ODs5h4HJ/tvNSCSXiJF7+vuOZrIispbTfewG/Ued5FTiTLiN7X8bX0I6U5UHv1ueZaJNrbgaUzJJ/E7Ta/7UEiD5biddeo2+0SGYaM3T1JpA8+jC3uPc1BOIA+gAE+fnE1kOCnX0kf4fU/ijvyd5dvL08aiS8xs7ff19zSCHYt0vyN/AeVQEwVsmbgbC3jHvSiKAPyjwBABs7+9OVCwlAQDyEbRsaROottyH30oIyn6TM23350qLn6eLP6zSoMcnTa53LsBPUxzFSKQzu7RsxEgTaPehJlCQIfUCGLCIHK/Xah4iy4AL+WxDgDxflW13o2toKdTqSABsL3qSMFyVLIOrCwd5nkQzXpJw0pk+trkaxpyvUsRUW7oclyXIDsGjxP3pv4oayouwghzpyckaXPQeNCSoiIUoAORo/dtznmwqSVEi2unQ3OzGOY6UUIAeBoz87ltjYaxuxqpyCzOogRAEksGALalgmKIUl8xdimeslQ3dg2h10pw31SH3O4BflB89xUVrKmWSQlJtY3YM0u4Ena29UFSypQCi0sBAjmOvPWCaJk0DhtgdB0DQx/3bNR16sGG9pSG/3E6N6VVUtSjB7o+ZRDQORuWH+NdMcJHDAZyXeANz9RgmAH9gCSkvcMLs+4Zi3l58qhgJSkQW2DsO9JYiTdr6PtRUqcSwADAjodX+XKQkFtNL0WFkHekNvBiXLc/0qBg94kJkmZ7rktrdgBDjrBIMAOYk94ZulheLNNQAAck63g3JGovAYaBg1qNEgsYAcjXU/uQnypAh4cm8mAREk9eet5YnxDdvAwH5wwDSTHITQs9wZEAFjsqAXfbe/OjKaFgC8aP+ebqu9qlmcvoTY85EHedKgFE8gLgXJBOuugln3hqnkgCwYMbMxDa3ufCSalaMteV3MAAOLkkl9H2nn0plkJJPeJvJi5aDzJgfpUuSUtofHQkto4O+8FkAHDXYWks5Z9QPm8T5mT/SAQxiCZcjQdacu3KGgm5EsB6WvNRUtikJ1cnUMBrEk25P406sQTmckMZP9Mu0aquBtU0Fu4PlfVuRP53ANFQ+vsTLdAz3uHqGblaWLmIcRrAfw1NTUIt4W6sZcRfkKgK+vJ3NmIvuY+1MWt76ef4oasI7Nd7XfmIgy7VNTh+pJcdG20sfYgieHT01193BMNfmakVkBzOvQN428Ot6dIsCG3gganTTxbfm6C7NrafYub9KlDgffbwtRkGfZ29+FDADcg/l4l9PdqkhNruPN9+f7ms0OUAkP1t50VSHDiOn3oYQyYG7y/3nwoicR30097UEMxETTUS+oDQz0qngZJxdAdQ8Hk4ANxrzbWnThgZmHeEk28z9IeP1pwQP9Rdzz1I8Y8r0NeJN3bZ9GV+v2ro0dS2YByYA1ixPMh36gXakty7wNx/pBLdHbkfCpYQN5tezWLJHS5tvqDAMbWFgGZhabmqHJHPf7ejt51HOlI7zRLA257N1282ViMebu5HSwF5LdaScOMypN7gs+8s4gNoSaaCRLEmGLPYzfkJtMHqaSkOlQPg/JnM6AMI/NOv10GwLsZ1vzh+kAm7954GpMfkiqlSSSRmJgyJ1G3IM3j5ixHdw1izXYfaR6aQ8gopJBLsXcCwi/gD59GiFOAMoAZju23PT2asQxWAYAJAGxPzQAL2b0p0ue8onRw7aZWMz+9IJygkHYHRok8y6iPDZqSMUOWdStXYB/wCpvXW+taJB/ihIKuhdpaNLtsB5VFSwNASI0IAu1zq3/cHgtQ1lgcxfkADDNY83PKzQKmggd15l/F4JeJB8rmppol4hIJKjDBiWmBYau/kG0qaCbANdnbcuQ+uvgaElYDhPei5B1IaT00NOgqHzHLa17uI9Lx6i6TaaVMW0ieYPW5aOl4mTnSOpA3kvo0nw61BC30JZwJ0gmTu5mKdC+U7PLuHbxBY9aliHTgt4Wk+UhtWbQ0ycNgbQxlyHAnnYP4veouA4A0nQFwAlMsAc2gknS5oqQRDGYLNGribkeTxyBwXSCALeFgHiG09zLOWvspocyQX5+96hhAxmli4kGbX6G+lFQwsJ0DCOos7/AH5zmiCzoxcmS8QWg7zHh4lRLR4WnzFm1vSSo2ytoPBiBfSnW4BZvsLtJ2AM3sdTUCSIDvb1jpL/AGp1PzfoP1m9tZ8Uhonax30AiAAaID53Z/P3yqAa30fplZr+rGnDi9nIf0O/vZ6IlVh+D1PWmT05W9LPv6+GQ6SHbx18xUgA/Tz9OrNN6kMMexbm3u9Ijpz3tsdPHeoJoOjH3MeFMkObeuvTx1pgo7R4+ADz+kUkhmZ6CU7Gnogb2W9KVQZC1sGDOWtMvN/CedQw0hJDg6DmWeDyEAUROG+1pPJjDHaPMVDFU5MOwEswcggH3667i0RamANrsAJOw0c2HpeKr4iXcJgCC7mzak7R40NfEJSQCtAPzAO5gs/iWHRxTq4vDABC0tDB2MRaNv8AArcxvxUgAAwJ6vLQHcW+VuUNUcTEzFgCU2cawzNsXv60NPGYZUO+m7AAgQ8dBDDrUv8AiUSAtDJCgWIGjxP0tfVr1e2/Gd7Tw21Lk/a9tJjw5VJSne4IPLV3gxoDO/hQD2gjLC0gC5fnDTN4M/rJONh/StGsuNBd5252507b8XkiCFJKhBPlKSI8A/hsKjjYgBDtyYEmDLnyHltUl46CSEEKZy4UIBiwfd23AgvT4YSACZNwYDBu6ctx6TA2F/lkD4ZJBIEOGABI0Z/WN6jjYykBOTKFEhKHDuSe7CksO8t/E1POVEgOWMh2D6SI1PtjReyuzVcRxeHhJILArLuE90XsZBWPEV16eO8tM26ij2jx/wALEw8IJUv4iSoqLIy94pSAALsknosUfD4pCpJLizix1N5ltr12vGdh4GGhedKVLxSlKlFII/ljIkIcDKyUgEbkmvPeKWE4q8PCSVYqSp8MpZkgpCDmzFyoHMzD5mYM59GfRlv9M/l16eG8ZbfNvhpoEsIgbmFAEkiJciH1G8uhaRKnJMuX/uLsAzu7fvOVj/FQAtaMRIAzFQSSEuJfK5S0guBbWKu4GKoISopLKbKWuDIUJnQuGv0rz5YXHkyxuN1V3M4cxd7Bml73dotazRNgxYSXi+8EAE7UFHEAsM3e0v8AYctJFrtRUqmAGHoN7xt/iuVgkDLaBuTOb9Y9etMnvAOqGcj/AFaqgaAi1TCDcm2sXu97c+XOo5LBnLNvbQ+V9x4VGTJXAyupyPTo5cHyk04BJYMH3axtrGugEjeJEd0ZgGB20Nw27+saUjiBgLs1tC7e9YjWoEnD1fz+/LXR7WvRsMAsQD6G7Dy0bkdLBCtkufKXYHkQB6PRkYcSxD69Pzt1ialBcO0Prt1/ao5gkWEm0a2ZuXo9METJMnS5kjqxG1qbIDoZ9YcCOvr41kOEh3yi+/hPrpU0JFr6fvb3NDyCAC1hYACS8NGz86klmkuenr5e71BLJq5A19j3NPhoIa5AGnhHpTNf7A/vRE5gft4ba7fpUQ3xHg3Mfc+9qdJBcfn9RJ61NKnuGfwqQQHcSR+7RRRMwEP6U1DwsQMLzN6VQckrjcdWYFSUXfIA4sQHUT+zU+H2bjYtkKU5AdZITrIADW6V2OB2XhJKgUJJBJLqMJd0jqQBB5tFEx+1sIDu4gUS7BIK5cj6QQGIINm5PXq/J/tiMPhv4WAACyolvpy5ejqmW/HOr6P4bwhLEmLqIEHvfKRpQuK7TxFsUthAblK1FywBHyplpzOdqr/83xFKzfEZszDKhi8amLA/o8Yv5L7F3F/h3Cd0oy2+ohg0g+EDZxTH+GMOfmE7mEzcaluknaqX/FqN+IUDyVhiWABdKZ8DPpRMLtLE+UY6fmgsh7CNBlsP01f1/Qx/hhMMogm4LFiQdWG1+m0Pi/wz3QUr+YpZku72UxUG8TpRk9qrefgqtGbLOsqJvlu8NY0XG7WxC4SnDA0Od9QS/dMF25RU31BTH8OMCQtXdJy913vIZTmdSAJ2qqjsLESCBiJAcpsQHDu0EM7ACQWFbSuNxMqsuGkqeCFQEgwJTMdL0RXagShB+GouGIGU6ad6wYxdm2LO/MczxHCcVhqIKc4NgkAw4NgM0Ptzq12X2orhRjcUg4ZUnCLIUqSwJbJCmKyhyNE/NpWzw3HYKyWGVSiEgKBSpYY5W1sCP3LU6uz0KSVHKokxnCVMCSSxAzATEww8euHW7LuxMsdzTD4r+MV4mGhXwlIGRSikOs51LzKUxY5WtPXY8thJVgqC8MIWsEFsQZTAYMVZcysxckF3Cdp7fG7Awy6mUkf2HNqWgzaWB5VmL7LxEhWVOcf9qvpIzI1hVmOk6V3n+q3bXfp9SYSSzeuL7ipxXbysTBVh/BWnFWlQykHLAJUUlp7oPNyOtVP4R4jil4yeHxSs4bErTiJfKAgkHvhwXygDmOtHwuFTnSoIyLQXS3cINizENtLgtNafB8ctBH88pQT3gtCSIIKTmSEgMY+WQS5f5bl1cbjZJ/n7+uWev1MurlLbx/7yvcZ2ACXw+6QAbkoloBuN4tWeo4mGWxAco+oTO4VYsxv0rpMDjWBzsQ5ZSDmDMGB2L+Fqtrw0rBKSkkuAbpJgMoC4DN0r5/5LPGTDlMHEzSmbyS5Dhj/uZ7A3GwqKcPL3XAD5i1jLm25Kj/u1ar3Gdhh1rQMjGx+UswLH6X57c6zVYpQrKsMRBJhXjM/tXSWXgWMtzmc3BNtQAxnX0Jh5LhAQ5ENoxch7DwfVn2ahfGDZgBlmz7W8tDvuKfDTlzAlzmILWbdrMzQbbsZVBkiQXyw8HeXIcaAeVSQtNiVF7Mbg9eh8hTIw2DsIYSBAgN1YG7SetOmSdg2skhjIGnKsqmkJP0vbU+fMEN1naoqkBwVaQPmeB7/zUlXO3jJNwwMRl0qbxr7cu2p5VBEJYBm1gWnYwX09ipFBfTn538C9JCJIb1PjJvtSF9R4q18XtqOdZE0pOoH2m/qZp85BswfrGjzQkJPQtYzG3Tef3MFszs3JxL6NH2qIcr928HmxplIBYidj19KTAkEMPPwDNPpUVYZfUjSYHg94/fcCYZLfL6UqiG39DTVBz54rPBSvGt88h37vdAygAksbh+ZqGKvGZUKSPqYEBp1lvPrXYI4XBwQ7JQlOYEOyZ1UDdufnM00cThKBScYuASSSRCmcJU7sDoSSHABAivT3/IOUwcHEW5ykpEuolnvJN3G3nvIcKrMwZRdmBeRo/wAsayLb12iU4WZaM2G6QHDj5SPMODf+6hYC8NABStAd1Zs2bMC+skIfbYVPyfoYXDdhKWHJZywIAIEhtZD6+F6dP8PLBPfcZXJymxEWeXDN1ia2cftUANhpJIYkrGUZQWyh+9EnMARGtP8A83UxfBU7B2L2VJDgEhhEctXE7sxhf8hWUkuEjpoSwLkhrA6MJtdcV/DuIA6VIPJ2LtHXpaTtXQr7TIHdw1O/1ZbP3nYkiCC7XuGp8PtgFYzIWlFsw7wBbXK55Pzqd+Y5T/l2IksrDUG/pm8FyDztGnSpEcQhwBii3du/+2z+ceFdkleFiBR7sn5rF8xSJ5lMTZt6AsYQAdaMpDsrKQ3zCDAhurbkmk6l+Dkx2uthnQlYBsQxDWnlpDxSw+1Thzh90JSXRJBJOZKEuo5XIJLiOhrpOK7ITid3KCJLuQRmJU2a4hSe6Qw0isPiuxQCGWpLWzAKzT9OUvPS21dMc8PgP2Z21jYiVpKHUk/UUiVZjlQofOA1zl051uIxEsEKU6gxZcOpRJsW1TpaNDXN4PYygolRB7sFGYwYBs/ylUANzrQwOIKQxlv6zIcpYl1RcDfbWs9SY2/0kaWJgjETihISR8qHdnABE3y5ndul6zeM7ECQo4ZKQA7KkFiCplnSddtKNw3FISlkrALNKiN4SSY8K1EY8AKYhr3BLwXsB1MVz3cVclh4uJgKcOlUQXY7xZQc+lanDdoph/5SgYIlBJb6Xi02ra4jgkLBgaEA2zEuT/adXG5rC47sgoJCXU+nO4ALzDlrsOVXuxy5G5w3Fg/OMrMXHyqLgDKdRb21R4rs9K0wAUgnuklnD/KbpYxtHjXLcPxSkH4YED6VEs2oI0OmlbfAdoHEICLpfuLaGEFKturHm1ZuFx8w0zeI7OxMPMcPoQWBkONGVIuJ0FRw8QlvpU3eEO4aH3cgdRVricdSsTMqFMwGgTD2Jg6sdOtSxR8QnupTiJIYyxLQxgmNTEiYrUvjygS1zuZNywvqzgQfOjoOUk6HQyBBbXQl36a1nrBSplhTC8aAuCWhi7Fm8avYeGkseUHezT4kMdrVKqYWmGLBgw1/bza9SSpI+on30HsU2CgOzCT5luhO88xzpxo1+c+/d6yJBba+/f3oK1zJAAuGueU9fKigxaOnKP0anKJePbEHa+kXqBJW8iRPr+2lTKnsPZ9TQxhDUXAu3v3o9SAb309T9jREmDlv039+FSQCPsxf802Gp9vZMD2KmVan8mD+KCDjalU8NQnu6nU/pSqDmF8QCl1ErUCTnWAogliq8JcAWDsOlCVxDsRmfKLE+cMPZmK6dXYuG4KsMKu5BIYgEu7sBADND0PG7Aw8yWA8cxYgQQDc5hq0c7+n8kHO4fFZCFpSHHzKLk3JAd3DhtRfzdfaeKvWLR1Dsb7ePWutPZuG8JHd0KU2dUuXL35xs9EVwiDCe69mNstzsYgO9qzepPg49GJin5VLUTBCYPQ/ed6SuFxgO8nE0kEltNLbteuxw1YSHWkpSlgCrMMocjXclvSpp4rCXAWCS5YEuzEw52HhU/J+jbisP4tknEAaWzTtbwNTVxuIDKyA0Pyg32ny5R2vwcOWuktexuxJ5N4HnTrwcMpsDBT9LBnBJcM4h/8ATT8n6Xbi09q4gLqykizpDybbuLdGverCuOSr50kQxysZ/wBKknnBitv/AJKkFRyo1y90iJDHmxaBpzgOL2JhsSRlDEkgiNbwGYAkt+978U2o8J2nhoP8tZSlXzIxEkhwNFAkhwG2DC16fCWtCVKYLUXMMFOVFbd5jlDkAaZd3aPD9mZcy1LSfhkhLxKc2YS4Kvmc6APuKohCx/MWHWosI7qWYudI2PT6STvUo3MHiAQVLUnDSwZAVa7qYs7hpPOLGiLwHfIgkBkz3QpiHMkOkaQXYs1zif8ANlvl+YAfMWCid3AgaNN50q/wHaKSe6rY5cTRhZKuirF7Daudxs8w0sYvDEFkZVSxcgOQWYmxUen2oGGv4cFKsIkksQ6dNPP5bTBq/hcYkFRWGSUpAeUhYKiZaIULgHu2o/E8Ll7yQSSZS7NYd07zYxNxU36qhcNjq+ZKgUkPsCZcPcFy9vvVnC4xC8ySkuoMUn8ERMB96x1YasMZx3dO73TEk5flXrb9KNg4nxCEJI+YCNFE+aOr5emsuItcX2akkKDlfXvDUT9VhBbrFY2LhKABYZdFAC/MfSa0v4bGJxquKWjE+HgYahh4C8oUpS0/OsuzpU9g0LYENTcWcTBV8PiUFaB/82ECpgnRaAM1ncpBA8Hrrenlje3fn4zM1HDxE5cmInun/wCQO4VIBJ8Nn5ba/ZWEUFiAe7mSSzOGDxFiPI21y8TBBGfCUFYZkFBcEBpBD21F5eh4PFrQd07X6y0GT5nw5ZY1eWjxXDpUYzZQA6gJC1FiAOhcizEVmfJDOCZGjvJHNx4N5a/AcWkjKLEkkkjuwIJ1sQ/Ki4nChXysQqVAyCnKQABZMh31aszLXijNw15hozkdfluNC/22milP93lpFtdx+9DPCHCkGLkHyI2f3a5EYjjl6XP4PtxSqcIFwPE/bm0+BogS3R+f+dKGEuNN5Pl+L7g0Qj256DwtUodIFzb356UgsWfxtr+1JOGA/i1SydP2oh0JSAT7v793Sfz7NMxA5NfWkhR29KBZP7T60qn71p6g5bhu0MVCVBC1pQJdWUkM4HIDuGGFtWo+J2hiFOU45cOxCRmS7POVmjNqbWZqIjscgH4i7KsAZJy2JFmKS4H2qaexUn6lBLhL91hlYAGB9TiBcchXquWIpL7QBUFZsR2hlqCiIdJmzhy19rVBPGiTlKi9yTreXd+eu40u4v8ADzKUUEqEaAbZZMXV0qyj+H1gQEidWLF3AHe1v+d53YptmYXFMXRhoCtCCe67TEwzRtyqWJxwVGUKjUnZiRqWfYWtW5wPZBw5OVybOu7s86BNg3rIsI4TDK1AlKlC4dz3m+m4Ds3IAvEZuUXbnkdpACcNLmdvx+d/CKuOSQ3wyHM5S0se8W1k+zW9xPYmGXOVI2Z0v1IOsbtQFdhI1SXn5S8d7fYcqndibVMPtYKcnExQSoKy91nl2ABAEyCANWq7g8eop+dOI5KilRdiXgEAEDkxgaVXx+wjJw1FKgC75mUz/wBgjnN7Vl4vZ2I4YBQMuCCMpI73RiD5VdSq1MRSkIwsNSFKKk95Yt8TEJC1EC3dJbYrsWD2ezz8X4i3IwyoIQAW7qC5X1Wok7FKRd6xOJxMXDxcRXeCU51JDuk5UnINiXALf20Q9o5e7iYYVbvJOUhSLlhDXItW7PH8s6a2J2QFJzLSCrdDJUZDXGUm16yMfsdYSfhnML5ZC20dJ5a89ddLD7TKmCMRCiCp0KGVTkEhy8so6A261oL4pCiAod5oSbuWcJOrbiue8ormeF4vEQCi4ZlBYtE8/sPxv4farlIfvPKSz2bumBHOT9n7U4N0pCQVqKW0zEgF3VzgeJL1jY/ZasN5zNLMQoM8HVndiItanjJXUKXh4gCCCq5YuCGaXDH6mcbnY1R7Q7PHeWHLgupJykIKSFZmvDyGIfqTjYXaB7oVmKbOCygLFjcj3tW7w3aIypdQIU/f1FzIaDYbQYrOriKvY3aiuCQMAYafhhykpO8mfqOrGZu1auF2jhHNxBWyUGcwLhSicrgXaVQ75Sz1Xx+ASUMgByokuXCgVFRJgl2JMa1gcVw6sMwe6DIsUnQEfTeDYvzrVsyu7yn6jnOz8fE4zisXHGIvC+KsgZFFJSlIVlgFiR3XgyXFyU7GBxyDiYnD4jpxcIAhRJAWmHXMhTGepOhq3wONkVmCEknVnILGXDQxI5uah/EHAIxFoxsRa0BKWStDZUEkusqBczDkMNd69d6uHVy1Zqa8fr/t5739PLxNz2dOKcNdmPQW1d9GHvXR4bjFOW5QdP8AS/23fWhcJ2ViIw1DEw0pUpSld1ZKQGBBQkksDLpmQ85oEg5JEKDF+X5HPma8mUm9R6Jdxv4iBiJhiRHIvd93YB6xkJKO8D3Tpcu8g871Z4Di4M2bM+kS3L96vY/DhSQUs58m/XnXLjwKaVuza/fZ/H0plLPo7e7T+dqr4SSkiDlP+PMbedWgrxH4iPY3pYpBb+VovMctaIFH1u8b+MfeoAs7ltvfv9HStnEkE+/Vy/OiCoJgFvPapZWc1H4nv3tUlK9vQDWA/wAxpUTJ/pp6DIV22pII+Hh5lGJJCYAZmIVAAYczTHtjGBCiEtmPdylu47NIaYfQgGaz08UhPyhWI0d6A2wQlhvpR+FRxGKHSlkvDAJADOWsGcnqR599Qq1hdtLUtROCQkgANDMdymROgbq71dwu0sRTj4e0GQAQMwJeeXXXXJxux8cXUzyZJZgAzh2c/wCbUDiOzMQQpbGRAVoL2mHnkamsaNLi+KxFBiVh3PcAEZWKVEqzM4eGMgS7GlhkpENLvdJAd7Zg5BF/vVRfAkScQKzdS9hEXn7Ve4Hs1a5ViMHDGRKiQGcM+ZtbqFoq+JBZ4XjVIgLUQzFKkqUO7oCAVCFcvtVzh+01hwVIWX5BQiA0PLW/NZA4TESe7iODDhQeTqxgwA3sHx+C4hgYUCPuf1OrAVmyK0+E7VWFrK8N0OIT8yD9UOcwfQFxN70u0uLQooKWJGNhgliFZXCjzYkNOonQVgLxlpI+Jh5DY5YMepLl3L6UTD7TAZIJS6hBlJ7wsfmndzzqzHz4TS+eMCsb4ZynK2UCcyStCHO7BZ9KBx/Yg7sLfMwUhiGZ82RnTIaH0a7CCkBSw0KkZkklVx/V8ocFpIi4tWmnjlDOEjOcxYIjKNmVOYEmNbaU41oc3j9m4iS6R8RixKLjLcEO7huekzUsHjFqJCxnkQqSL6u9wd9bNXVJxMPFJWUsUgpH0qyhQPI5SdLeL1RxezyUoLFbKAzAJCyHAzGyVNc2gFg8G9++TaXC8aAoESvKlOUkApSJUw1JcEk7BzFabIxJsoC/1JtvzbcHmK5L/g1ABYdSH+aX/Y2q7w3aZBGZWVoCgPvvbbZwaxcfi6X+0OzpsAomDo/OIfnuwdgKxEFeGs5oULjRnF/w35rquC4oYiMi3Kjcmyw13AaxEc4qp2j2cyXSnMNg+dIacu6f7fKpL6FfszjQCcQJuGyQ4dyCndJJkBt+Va2Lw6cRlgyLK0UmHS1iC2tmrkcbDKSkggh4UJF/QjUVp9n8coqYGWIH9Jm7aKG/OlnuAXE8KpBPdyq/puLO6DZQ5O4oGBj5fmDpsRtzBPj57zXVJWjFvLT0Vp9mrE7Q4MoLhI1ZhCmGnMO/NjFJRpdn8SVQovDpUbkavzAv/mq/H8CGKtHcNZAYeaQfInlWThcQYJHceQNuWvP2K6HhOJBASbNB0Idt7yIqa0OfzFCnsffvyrZ4HjAb8mAki0et6rcf2dchgkW/t/tf+ks42PhVLhl5HVOxA15Us3Br8fwr98AtZTXvCgPN/wBqo4aspymxsdOo861OD4sKaYNjvy5EbVW7QwJ7ogy+gVEcnL+PWsz5UDOE8aVIYY/zsd9hFAwMUqDElx6/rREk2vtOl26XoDJR57kebeXvSZE6N08vShJUoc+VSWsw4fpQFfkffjSqOcUqCfC9n4aCCkBhMJgkh3zGYcWbpNRxOJw8MALVmJVYOpRILZW2ABvEXmsDju1MRSWWsh27mGCmGnMZIBeeUsKqYfFBBAQnKC1ixfQOBYE2rt2/U008XtRIxEq+GMiSoFPxBmdSksoMoMpkyJyvs76WD2ngFCcQ4jDMR3nJdmcXggXkVyOJjMoZQAR/SHLwCxeAQQbtG5cpSw/cAuZYSwk//kJHnW+yWK7LA4zBWc2YQSU5g0szjwfxe1Ax+2MrFKCQwZ4l5GViSANf8Vy+GFmwZ9Du9gCZOYgeFWFYOIGH1PAdUmSPlBDxvWO2SmnR8P21hqR3yAtmUgSC5AcPyfyImHbD7WwSo5gAA7EpuGudoeTysa50YeKCYVGxDteZfaR6GoJ4zEBn5hDKSd4JO7+9nZFdli8AhZIK1JAETm7wAmQSWS3n41Q4js5CMNS1BKglJUDlZcCGu5F/ANWPw3axSzCxdkkpkhtHhiBbQeFgdoZk5AopGxLAku6Spj3ZMGDGzDMlgXG9nYZWCkkBYPyt3s6YIDuASqOY6ODGUvDY4gSpCpSt1bEuCDBJ51YJOHgpSEutCEpTN14SknDBbTuh5cgmrnAJGIkZFFC8PMAli2RblAWl+8A4GkoNprfpnyzcHihiKIBDQyVkgh2+VQDFWY+LiRetA8TiDDyOUukjMQy05nDhvmvBGoMl4H2h2Qk94p+GZ74lB1JIuHAb8nWgheJg/OAtDu4JaDbMJDFJ6Gs+Lwro04WGtGXDZIQwYCLOARqJ/cVldodlDvFICX0/qPKNzflIl6lw/FB82GSpWqVfMzumRChB8COp2OExk4gyqSAoGAXOnzDUT4gxWfMVy+BxZR3ZygvlJIm8f0l9vI10PAdopxAzl/IiDfazOKodo9mzmJZNhiES7R8Ro/3gDnucnFKsMi4MseXI2IsKutjpsXspJUpQLOXKW7qiwEph4F71z/GcKrDdgzFin+ksD4hi7860OF7XWWBlhKXiCJCvACbOxgvWnjYYxkZh82hIaAbH7PcPU4GH2fxRzJBZ0nun+of0q8H69b9AnJipl3SehSpmcf8AdXN8dhfDUrKIBboYu5sbjqOVH7O7QIYalm/uZ4MwY9W6rNhuO4coJOW02YEP8wH4/Wg8NjsRLAF+l7V0WPgjFSCC390xoY1D6cq5ziuFKC5aSxGxvG93FIN/g8T4iSlZCjJ/2lmPiSWHKszj+DILJd7g/wBQFyeYf27ULs7iBhlKb6CYI/p8W++zVs4ZGIhw4Ijopp9WmpwjE4ZUs7AkbwRW9hr+IghTSSD006bv0rB4nBykm0ynVKixb1B6GrPZnEsQCY15gWHUPSwqHE4BQRuJfcOwV9xR8PHzJcA/uOe1XuK4b4gCh8zd3Yg3SeR9KyEEIURoTroxOm4P5qcwXkrD6+/ZqSVvt50JKxaPLTcelOobX5fp767wFKaVB+KU7l5vvSoKCexAqDnBlhd2El2DTF/xVjD/AIYQT3ioBxcjnZmP/wDQqvhdu4iRC8zEsClIBJVmUPmcatyFhRv+e4xZ0oQRmcn6izb8/t49dZKuDsLDUkJIbLDjmXIOr5cto9BRsPsnCSzgd4skd3aQHDki5HKXmsBfaKgo/wAxSvpZoZLkAyHL2MMFNa4cbtHMcxClG7lTlp+WzQVBxuZk01fqadQjs3BQlSssCSSowBOlhPW1PjYuElXeUQVEF0lZDQBZwDaNX61yuLxpgZUvBIvcDYs4Y6m3Rx43EqV3cQbwXAEgRtKtDtU7b7HWLThFBbEuCAVFJLpDAOQ9yFCfvVXG4HDUkqQEKSpQdQsAE5lKLBiS9mgm+gwP+KSfpMT3VSC2kHK5NwaJwnGFC8yFEA3DQTzADECNIaJq9tVex/4fuUpuSILkBmeWGn28KS+zlB/pTMrGUFgXk6av42rawu3B3cxTZi0PsQVN7JmryO0UKS0sYIKSYuxZ/HryNTus5HJo4fFwkqEhu+liJuFhtRlYs2lF4fjwErzPmUWUpDOzkgH1DPrzFb3aBTkXiYTFaGOS2ZKSApISYcpdKVW7w0JfK4/hsJQStLhK0FQUn+gkZSXmCRLwQa3LvlNrB7RxFJZKgoFhnQwyhgGyixYPfwZxV48KkoKcHKwYEGUEXbViQb7GQWrmuIQvCOZKcoNzvy6MYHQ1Y7O4spU4OVRLlJJZXMEiQyuoLgOA1Szx4LB8bs1l5sN0qY/y1dXzIMgh48alhccQQFvmykEt35ADF2czL7dK2sJSMVDkWOsKCk6uLQrTeszE4YvkxkvJKMUXb6QT9JDtMKaGtWeRt8NxqMUd1jy0Ew/na96z8XsdISQh8rvkuBIfKfph+XSsoIXhKzJ72W5Ef9w5byB5itPg+08wdz3ixSo2J0HUW06VNfF0xMfCOGQoAgSx2a4PiCD5Gr3ZnFhJB0Zlgzb6g3MN41rcfwSCl2cEyHs6vmG95Gom4FcziIXhrZJl+6T9uYt+xq8jpuM4UYiStIGYjWyg8g7xY78q5hSGU4diHB1YyH2IcvsSK2+x+KJZNwYaSyr5Xf5GfTWpds8OGKx8p+eLAD/qg7sADuALNKfBX7P40g5mn6wLN/UOjh/8VpdocNm7w7yhcbpmOZEkdGjM9c1kUhWXUR1B0OpFq3uy8fMlniSH0GoPQ/epfHlKwQUgulTpLFKobKXKT71FbHZnGy0AEjNyIsR1tQO0eGymxlTgwwUoW5Zi+znrVDBxSlTgEN4Py+1W+Rv9o8ICCoCPqbl9Q5h/J9qwzhlJm4Yu49kdK3ezeKzJYl9Ulrg3fod96zu0eFKVKaACSkbp1HgX8GqQaPA4gIZR0jluG9elVuP4Nj3QyT5Bes8w3j1rNwF5SznveYOhroMFYWhj0PI2vyv41nhGZwq+7zGnWPx60Yot51UxwUqBNi4Lb/UPOrAQ2vO9SqIFDalQlkvBLe+dPQYPFwS0SkeDiPU+dDxfnV1/9RSpV2vChYsJBEHNehLuen5pUqY8Htq9n4SfhLOUO12D/MrXwHlR0rLKk/8ARfx/lz1k+dKlV9gXaOEkCEgRoAPpXWWbef8A40qVPREsx31P5q/2d/1EjQiRofluNaVKgsD5zyyty72m1XsA/wAlP/11J/2/FX3enKlSrN4/x/ylRxED4WGGDQG0Z1Q3gPKsTHQMthc/mmpUitnsZRypm+HPP+YmuiTb3sKVKs3+6jnOyj/L4Y6lBc6n59fAeVAXGPiAQMttNdKalW7/AHUb/ZqiUly8j71k9rD+X/8AcX9zTUqx7FDA+Y9P/wBq61dz1/8AQUqVKVyeJ8qf9Cas9n/P4o/8jT0q1fZ6ava//SX0H3P6DyrDX8/+38JpUqmPCRf7P+QeP/rWl2h8o/1D/wATT0qz7K59VzW9w9ldf/UUqVLwKPH/ADH/AGnxy3pcP8qehpUqlIs0qVKoP//Z;" vertex="1" parent="1">
          <mxGeometry x="90" y="367" width="67.01" height="50" as="geometry" />
        </mxCell>
        <mxCell id="hIM_Yc48U5NnjwSIPtRP-23" value="&lt;font style=&quot;font-size: 8px;&quot;&gt;Fuente: Google&lt;/font&gt;" style="text;html=1;strokeColor=none;fillColor=none;align=center;verticalAlign=middle;whiteSpace=wrap;rounded=0;" vertex="1" parent="1">
          <mxGeometry x="179.37" y="421" width="60" height="30" as="geometry" />
        </mxCell>
        <mxCell id="hIM_Yc48U5NnjwSIPtRP-24" value="" style="shape=image;verticalLabelPosition=bottom;labelBackgroundColor=default;verticalAlign=top;aspect=fixed;imageAspect=0;image=data:image/jpeg,/9j/4AAQSkZJRgABAQAAAQABAAD/2wCEAAoHCBYWFRgWFhUYGRgaHB4eHRocHRwdHRocGhwaHB4aHCMcIy4mHx4rHxwcJjonKzExNTU1HSQ7QDs0Py40NTEBDAwMEA8QHxISHz0sJSs0NDQ0NjQ3NjQ0NDQ0NDQ0NDQ0NDQ0NDQ0NDQ0NDQ0NDQ0NDQ0NDQ0NDQ0NDQ0NDQ0NP/AABEIALcBEwMBIgACEQEDEQH/xAAbAAABBQEBAAAAAAAAAAAAAAAEAAECAwUGB//EADwQAAECBAQEAwYFAwQCAwAAAAECEQADITEEEkFRBSJhcYGRoQYyscHR8BMUQlLhYpLxFSNTcjOCFkPi/8QAGQEAAwEBAQAAAAAAAAAAAAAAAAECAwQF/8QAKxEAAgIBBAICAQIHAQAAAAAAAAECEQMSEyExQVEEYSIUkUJxgaGxwfAy/9oADAMBAAIRAxEAPwD0J4d4qeIx1HHZdmhZopIhPAOy7NCeKwYd4AJvDPEYUAEnhnhoUAEZssKSUmxDHShjmMdgZGVcuWhSCSyphSQhOzqLFu3raOojmeK4edNGTDoKEpWc61ls5TV+ZyoObqoWs0RONroDnp06UgJQVBSwdKJCasXU7qzOczVrsIIC5Mx1gKQtQJIWoc5SKvWoLMwABp2IvtDwNctILpWc4zzEgMlxRKkhmFmo14wUrCTlADAvUUYkAeDxySlKLpotK0dQrEoWhObIhaeZkUQds70dhYEbVh8FnmIWhIKggV5ylFNhbO1XBa0ZCZR/DrRSi4BLkJSS5+EE4JaUJUSs5ycyKApNw6iXD1200jNZIp8/1oHGjruBYQpb3MhRVLlSqmjnKAW6vftGtJUhBTKSWLEpTU0etTHDYfiy5ZORT5iVnLZSSdj8b0gvhHElJUklOZfMAHdsxBr+2/wjaHyYuklQnFo7eFA0nGoUwCgSXs9xcW0gh4600+iRPCeGeHhgKFChQAIQyoeIKXAAwRFghCHgATQ8NCgAd4UIQ8ADQoTwzwAPCiLwoAGeJNDPDOYAJEQ0KGeABNDtChQARLxNIhod4AHaGaE8M8AChmgaeqbnARkCWqVOSTWgAIpY1gPF4JWUqXiVpSlyqwT1fXK1GeE2Bz3tBx5CBOlIlrWV8mckl1WpmFAmrNHBZlMl0lgb2NCPMdekXYiZ+JMqsFGZhyhwl2ATQgUAqamkaSUywkhBrQsAAq/ulyWcXtrtHn5snNMuKKRPTMykKLqUXGotSjOGEWLmLmKYqoNBflPfuPAQNnRkBCGVnYJJcDfxto1YKlrd0FgVNZwwF66EgkV3jFNLsYlzKMh83Q9HP3vF2HQt7MSLlwC9MqQAQ7Cl3izhUpP4yFqUyXJSpBS4agS5FTYN1HiVw4SlT05ioJfLcu4ZKcxqASST4Q9riwbOq4Nh05klK2UEjMkKBSQQ7W94EsTG/ljkMXJEieDLDpD7qykCxc138o0sfxwpypSwUUuXq0dkcsYJp8URVm60KMnhXE8+bOobhqAD6xoSMQhb5S7XjaGSMlaYNUXNCaGeBF8RQkspxRy7AJGbK6q0EU3XYgwwwEVYfEoWHSXq0XQ00+gE0PDPCeGA8NCeGeAB4cRF4TwAShoTxRiMYhCkpUplLLJGp8tIAL4UBo4hLP6mqRXoW+UKADNxHtNISzKKnOgIYfurcdodPtPhzqv+0x5YMdnVmUCEBgCKefkYOwqwmmZwTQfq0pHFLPNBR6XhuOyljMVBA6nXZo0Zc1Kg6VAjcGnnHly1lRCfxDcgAv5dLCDcBMWDcqSxABsKWIFItfJj2wo9HKoYLjk+E8YyKWFlRzMQxJyhtie0Hr9okBZTlVbprvWgjSOaLV2FM33gXH4gIAL1zJpqzs/asc7xH2mISRLy5wd3FLt10jmZuLKl51lSTXMM2YauRrEZfkRjxHkKZ6dhzyhy9/iYnHneExawtCgVMkD+kXtU0BPxjp53tAAhJQAtTc4BIy0HSuvlFQzxkuQo3SqKpykhPMQxpXV9Iw5ntCBKC8isynCQLOGqSWo50jn0e0ExytayUl3QC1C3KLkbQ5ZoqhUyz2s4PITLQZOVAQahLEAKVe7mulqRznEeGLlISsgcwC8yXLBRoVUZ7b/OOlx2Nw826MjBWSrZqCqiaHWzkuK0jn5OKzpyLzhA/SCQlLk2vuag6xz5XFu/8FRsGwKEGqlEZRUPckABVLA3vFwIYpCgGUHq12DXqCHvV4rVMIlqIA98Aim+V67ganURThsSHKUEAG+arF3095gbCOOXPRbLVTCEqy095wzgsWJH9sTwK13WnYukeI2e0VysQlCwXzAg3dk1ckE18D0gaZjFLWVFDpAJZ2ozaWZ4Kb4SB8nS4XiIKmzEFb8pJZTG5MXzMSlKkhrb13FNx4aRzuCnoWUkJyqBBoaNYs470eNdEspVmYlSQGIsb7UJ8N4iqlTCLNX8yp1Ae67Zn8NQ+WvrFuG4iJKXK8yybNR9K/xGHOxiQgkq5goAJPU2J1EAJmZ1FaioBNR/+ezRpHUnY2dHM9o5qarKXLgja5p2e/aM/E8RmrAU6lAkJoQDYi7Wr4xizsS5zEA81K11L9qWgzDYsnkS9NdQd+9vGNW5eWKg7h81eYpJIopwHcFLu+t/ER6DgZgyJBU5CQSa6hw7x5zheVyqp94KJoSHNe8aWM44soloFAVMouXtyizafCNMWWMLJkjupc5Kg6VAjoXieaOL4bxj8LlYqCyGH7W9S9fKJq9qV/8AEm+5tX+POOiPyYNJsmmdg8MTGVwvi6ZzgAhQDtvu3jvGRO9qSSoISNQMz0Iu7eMaSzRSuxUdY8O8cPhuOzUj3305mPu7P/mMufxeepRUVrcCozZQL7UGkZr5MWuENRbPSE4lBUUBacwulw/lGfxZKeZSsgATzLJGcVsARrbxjz1OPXLP4qFHMLua1F6msVz5qprkKdavec3tfxEZy+TS6BqjpzxxP7BYfqG3WGjkEZkhntuR9IUYb+T2hUCy8qHlrNLFJDVLjM9cpFKkdt4MlKQpYSAzitDXQEOAGYbw3GAtaypMtQZmJvYVHbQxejATCknnW6gSlWZKQDsxobk3cxEpKrbpst0OiUoGqkuLVBP/AGbufjBSsyQFKKSno5FRRmFO14tkYacACoApqS2UAEOcrXINnvWHmywmWc4UAahAJKuiUvq5PnGKdMKoCRiApIZ60IJVRzfRh9IlMngOAaMSxvc6HSkGYLAIWlwVAKrRnSTUXvX4RHFcJuCVi7KZnHUkMdNPjGsZxvkH7MaaqYJRIcVcbZSzsPCHwgKwkUTlq7uwNFEh9i942VSMgUnKSCGKgMz01At3pGLNmlC0iXl5nqoV2+NPHpBr1XSCzckIAdPKWY9Ts2wpEETVpK0qbLQhjTKDR6UIpTvA+Fwa3Qt15suruX5stB2d3vDIwigtT/8Aj0V7rl3Zi6j2DRnHh3Y2i/GTFKSySpkCgBvvTd9t4AUhOVlPloyiWIjWmYBWcEBkqLhioEjatBV7bwl4QBQY2cMUggseu4h7vtipmFNkTFKYMUgDKSyb6dSPnF2QgI5FJ6sGLe6xOmrxrhKUkKyqSpIelrnU07001iWMWVpDoAAAAFSMgN6AK1O7uIe7ylQ19mBiZJyLdSXAzU1LvGLgkMCq5ZzmI6l0g3jr8SlCv1IyKCcxJfUPmYjmvrHOLQETVqQElCQQxsWYFv8AG8XB2mPoEXiKEEkaPc008Qxh8GvKsHKVAsKU96l9DeNKdw0KzLAICnANCCoAFg1tot4dhzlUhTAkMASA+tSQW7sYptJcAwnAyggpUxDWSQbkM21RpBOdKUKzlQeoJehNGApZ9minhc7l/DOYqo7hwCRdNqUJFo0cWl3KkB6VZRAblrWp5fWMG+eQujmMaoZ0vmsFPShIsBs4glUtRSnmIUbpsT1+MI8MUcym5QSxJBJrRgoijC59XgySkKMsKQU6BQpmqHsKNvQdY6dP46hN8mdNlBJAJuOUbWuYIwSAqagpcO7h390ElvAW7wXjEomLTkALOnNo7DKD4Vs5g+Rw4plryJAWEFKS4clZSFbEcrv3jNySq/I0zLM5SE5ixUf0G7G/ptEkTkrS4KOUuCbioALWIIp4w+I4KpaqLfkPK2Vls9RZqKBL7QFg/Z+bUrZOR2Bsoh2foYcVCu+STUwcwvysEhRBtd7DpeKMTNOdQCFEfuSw0HMWqw+xAmAwqwAkoXU+6CAQ7Gp2YxfhMHMKiFGxpSoAGpbX1hOKi27A0MHxASy+cupJr7opUh3o8YXEgvMqZmJTnpV6qenUO+kG4/CBNFE5LnKQwILBwaw2E4ehahl5hmDgqLCnrX4w4yiubE0Ph5jIQkHmdwCGNNKUh5q1mYQklSjlHLVjSjG71iSJKwrKlNUOoM7KdjXNrBeDQnN+YKU/iICjylQSXAQSQUhyMxIa7QnJK2UkzE4ji6ISAa0NKOCbeOkNJmMtKRbTceV7GNLGcJE5YRm/DCRykpzKUqj2U4TWCR7MqQnOZgWsEMLOGbVVIq4uKLWOTjqoGorma+52pCiGUpoUGnaFGVGdHcLQAKqYH5bRSVIT+sFwzE9/N4DXwtdXUVVcObPtFY4asXIrtWh/gmONSXsvUvSNNCkWBA8KPZu8CcRky1ABZYfuCspYdNRAZ4esOzixB2r0MP8A6ao5Somn1JtXdvKHqSd2Dn9IvwGFQgZULURuw0LNWC04hK/1M1wR6DyiiThVANRnF/l1vXrFa8KXJGV3by+z5QnK3Yk33QVMkJWQyyC76GvyimXKSTzBJUP1FApEEYdaVEghizd2+BaFMkLNCsAaiKjNIqMortBCs4JyqBoKZQA51HSB1qnF0rJGoKaDZiDfS0Qny54ohrMLBup6xOXMnJyjKVBtTY+cVrS9F64PtF6JCwzLJLanW8DmRPqM7FtAPR4mrFTUqH+0CNwRr3MSK5yg+QA2IJrlFGha/Y9cPRDA4VaKrUVHq+9i+8V8SM0/qA2Smg1u1xFqUzSzpSA73UabfCJTUrf3CDuDvcQbkbsN2CVJGTM4YVyF50DOVJ5UEMzKzKcWJOW7RijhM1BPIlKF9SrLRiHNdTHaqBy+4XazwAJa9EGsaLPwTKcX4MGXgpgSlIWpKRmLJFHAo9Ga1D1jZwfCCpPOJYJFlMC5DZuQUpvD45ExKCsCqAVAM/6dtd2jAwnGMQpQSlCVr60SEpbmUrNQANprGuNvJFteP+5NMEsUpXktL6Or4RwYyswVKl3IBBTVJuDXakaf5WWKJQhLEUOnTUWOkYRxeNLNKlPlHvFQrqKAxL87jQn/AMUvPmtmVlyt7z5XzO1GtClFXTav+Z1KfxV23+xrzsKC7IQsm4dLlv8As32Yf8iC3+0gAAXYt5GjRijiGMYvKQ7gABRKSC5USSlwQybDUw6sdjP+CUf/AGUKv/0iUl7X7j1/Ffn+xvowaEgkoQQbsNevlrAsuTKAZKBR9VN6npHOz/aicVKQrDZFggLSMxGhCuVOvaNKQFlIKkMSNLBw2veCcHFJvyZZMuGLWlWv5GyiSi5Ql6VBNfWJBSP2je5rSMXNMZgkEeOhHWHQJgbkZ2uTTextGLkl5Mnmgv4TXVNlpukdXJsDtvFX5pCqZQSLdPF3jn8ThZylEkXeuaoFz994MUsU3oGpc/59YlzrpmUs7v8AFJf0Dp5SRlKEqSXfx3BJiJWEJZKUhLpcACqrWHciAZcsu9Qpix3b7HnFmIMxxlDpar6HbeHuPwC+Q14QTisOFKNHG+hpsDAspJzhIQkoaoYe9S/3pCSmZ+1ne0VSJc1BLA/GveHusr9S/SDRI5xypSlNiKF/SlT5ReEpZihOtaaWfV4zWm6hRpr4Q8zDTCKAvavb6xLysn9TLwaCcPL6f3fzCgCXhJjCqvL+YUG4/Y/1E/o0F4gCuYWfwe8VJx4JDip8a7Rm4plOci3sBWtLEaUiCJhCk0NH6HWrHR9IbwSQngkjoqM7/bxRMxCQzF3IFOpvXsYxcRjVVoQw7UG2msDScUkh68uz6Bn6u8QsMuydpmrPmqUGFw7+DiBxNIWX9wabEq18/TrA4xwzEAOWYts7vX4RXNxOdRKKgpqoauAaeBiljlVDWOQZPxgchAKiz0IprXzbpEZExSgCbliRq5FOu3m8A4OWoEkliU1L3JCvg8FIABN7CvYvCeB0PZk0akvFVS9cwpWv2xEWzJoyvqAO9Sz/ABjJXMAykFyH8KOGbv6QlYjNQAuQ1iARzEvTrGezJcoWyy7EcRYsTZqtQWoW+cW/n6h3SdUnZ7+f3tmICCpRzO7aFhUO39uu8KYXIcVA2pRZe3gY32bVMpY3XJry8SbnXKQNnq3lElY5IJzUt6kCM6VOYJcMAQXLl6UHhTXaK8bMQpTu5LlhtVTto4+MZbErJeJoPONJUlVk970ID+EXYbFBZKXFE5j5ig84xp68uXKCwYkX7+gixWIOcVZ6P+4sK9mbep0ingfgbxHQqR1jnzg0SllGVWWclSM4uCr9FLdD9IMONIpSj00oWL7s49YabjUkcwNdjUNr0Yi5i8UZwbXh9kLFLwE4XC5CrnUp2HNoBQM3esSx88S5a1luVJOlWS4vWvQiAsTxMIQhauYqcU1KQkkitBUHpWOU41i5k+WUrNAolKA4rRga1oTfaNofEyTnqb49+xOMr5BeAcexBxSUqmqUlSikhTM1ahhytS0dpxHi34KqpChyWLUVnzE0JoyWpv0jiuAYJKJ6VFJYOUku7qdIJahAJrTroY6qZISpSZpLhKU8rXP6erDmprlEdGTFFZVa4orSpM2FBKl5v0sHcM7ZiBe9esD8QnEg5SxBanQP80+ZirDzS4zOHBvdy4D+lBt0hTpjpOhq/VhU96CnURw5YzlLjpdFbUmUjGlBznMxL/8AUKqAaWufCCTxdBCXdDgBzfmZqeRgXDtkUlRIzDlcVYKyl3u/NXrAOIlNVRBqSLN71D5AmDZvtDeFminHBaCpTp95rg03H3rtGZhMS89BFyaXYgBlG+6m79oWJI5QCcpSoEnTlJ86n7Mc5LUtMxNVJYljWjm/hQxcMHDFLG0dhNWfw1rSog5SUvoc5YdAoH0O8GYPiGdRSWFHTq/uj4hVY5zDYspzoWTlygM1AUElxuKfCMzBYhaVoUFfoIHRO3o8LYbTI22d8cUXQ4oWrW27HcRJU4pclmJ9GH1jFwuIJTlJcoSDezAO3/qR5RcMS7VBBZuooKDo0c7xSXge1JeDZmzwxL7ethA2HxwV5V+/u8ZXE5eZIKF+6TmG5SxA+PnEuGzU5Qk0IuHs4bXsIezJKweKSVmv+ZTCgBJG+puRvDxWwx7MjVKup+/8wxFKE+cJNdhQ0I6lvvrEweu2/wB6HzjVZJei1ORUpA6lvPXUxJKa/f3rEg+hAJA0G+nnDOSBUXA27ekVqdD1SoYBiCDXe8OkdiYZT1szfJ4SCSbMG8Sx6xLkydTJk6UpFOY6inh4VIiUwBzyjXS9P8eZi4AlhTbbX+IHk0g5NIrRW4GpanSIpUHZk6RcmWPJ/BgfSKCASx1pT+ISy2mw1ssURoLf5+sRI6XA1tX7MOpANHuPu0MtJaziulxAsr9hrl7EgBrvbW19/ugisoTX69/SsWZ6C32/0h0Jc+GsCzSrkW5IrVLF2BpcsbeHWImUggghLdk602i1bsa70HmR6RCY4ctYef2YpZfsrcdA+JRLSCpZSBWmVLVIIDs9wB4xGdJUuWoy0MvKQGyhyQdRQUJr1jl/abjU5K/w/wDbKXCwAFOAFOkKUS2Y5XIAasAzPbOak5vw0AnqoER1xxypNmsWqaZs+0kxsOhTLKs6kkVJdglQJNU1BFPkDHNfn1tVJcuaCjkjo/6b/SNubilTpCJygHWtSilrONN6QGUjYffjGsZuKoqUFLkI4NxtKJyBMlJVLOYF0uoE1BBNw4TSmlaR1uHklKBn5XShge6mf+okkeUefcRnZUsAHVSm338YJwGKVJw01aSCUTJTg6kEG42oIpyclRmo6XZ6AJLFigF7UsRS7Udh5RQvDoLAhPZQArbzrHN8I9pV4hbFCQSlVMxNNGDAOVMI6PDTivMkgJWC7EVPk4NtD5RhpafJq2q4JGUm1NAOl7bUhvyoG38fSLpcpanzAE6UIbob+kXzJBFLAi9T35QPnFKJGsz1IYgBm2GnnCUCKMPEeWloO/LHLQepHxipUsgjkJ9dYNI9VlSUDYFth19ISikNQPWnhBSMzEEGmoixMkBJ1LVBb6xG2nz0Q5AQlguzPTTbXrDBAvsGNL9fj5wSuSpwUpH/AFc+B0HhEJUtZJCks/35xlOMo/ZLk15KEpBqw+6Qwlpe3XSLZiVpZ0EDelItMpShYs0RJyjwJzkUfg7B/wC36QoJ/Kn9sNE6n7FrfsNxOEAOZwNBp4dYdGEBSwJL3LH4tGhMRmSaijtcb9e0MiaAHJTdm2bvHdtQToz1cGcqQ6LKBA1DV5Q43FbxKTh0FnCup6jt4wTiVqFXDEEWL9rwkqZyVAg90t69YnbhF8lOQMrDpJJCT4vV3B0ilCAJipeUjrodtGDOIME1OYs5G5Ki+o13ipMm7EVN+YH49IhxhLgEyw4JzroanT60MDzJegbY10+rQQuUDylStqKUNP8AtFUiWlIAz0BurMSaM9CIWTFjlSQrIKmJQkKVmNnyjNcAbRM4QKGYHsLdr+EWzZgoEEEmlztf/MVIxagalLb1Pwhxjii9LC76K5qAipLFwBUd9oZSkFJS5ps9WfYbQQtaVc2cg7Ja1alxe8V51gcq0nvQ633P0hPFiTTHfBnfmUl2ehb+ImiYB3Jt41BiqTIKSonXQ6FRHyPpFbly2bxLm7/OOeUY2/QJrthKsQAySks191VsfKIYlfIWcMgjQ1AcneGz5BUG/csx+/GB8cSELT/Qqop+k9OkVGMXVFd9A0kICAsoKs1FqIzKymhLfssKVaMj22waEYUFCUhJUkgBsoc0UjZxSm5jR4XPRlRkUOdWUrrlHLXI7uSAzj4xn+2OF/DkLCCQgqTmQ5YKzOcoNgSAabneOtdnQ+jP4OPxMOlLtla+vK3yi6RhwtSkoWHSrKQcwIbvfwcGsYfDMYsBKUu5ypT7pAJUwoz+6RSsdKnETUKnKn5RLlqOUgVUCyglmyq5SA7UYxTjTGpWqOX4nmTOUlT5kvld9Cz1Hj5RLh8tS8POlpDlSknoySCSTB89ZxM3ICgM6GKU5nS4SpJYOCwcBjtSoyOG8QXIzsAFJoUqAINcpBat8tjoYuuOOyE1fPR1XsSUiSMqU51Zg4HM7sDatKMaCOnkzshH4wzAEZZyUkg2otnY1vY3pHFeyGOUmWlNAkqUNirVibsz0tHY4DiKQDJnsF/uIIRNDAhTmgXuneMpL8il0dEMjh1pBOhIERTi5SjlCw4LdH6G0FCUmjJT5C3l6RFOCQKhKXPQR06Dk4ILwzihcHxgUcPqD841EoADCg2hFHWkEsUWKzMPDwVM17h31eLiuUiilJf/AB/EHlLxTNwqS/Ij+wE/EQbUV0gTXkpTjJNOdAt0+MEpyKNCC2xECy8KgfotR8tKbQ0yQahDoJDBSUIcXYhyzd4aXHKHS8BGIkukgl+gvewrGUMUkHIygaDmDfPv6RqYcOhKVkLUkBycpJcXLW1ieJwiViwdmBa3lETxqXKBNLhmZL4jLYc3TyptChv/AI0hXMVzA+mZQb1h4y2peivxJF31+3hEqt4RFc4pcEAEncaBqQPiJiizUp1OvfptrHG8SSu2LTyELWogmpr/AA/SEp9j9j4QF+IoF61Y6WJiSZlbu2rXcRMovjkHGgkKymj0r5Db70iwTSSCCdGZ/nGb+OMyaioY0ND4/flFxUTSiq0FKMWB9ISi48WPSw5Ewk1Nb+MUzVLFAl4EQsAmo1o93r8QYjNxRpRhah+9G8opPjknTQXlWSSXB+6+kQRLUEv1YDqWb4/GBvzKibsG18vHb/EWib/U7P47f5jNyWroXZbJUotR2Nj0O8OuaXqkBmr2pAZnFiX136xi8c4rkIGZyDza0pTqf4jSP5KkPwdCoOe1+rN9Ykgpq6a+OxEcUPaAlTsoDm61ylvIPBWI9oWSAk9y7s3zv5wPDJsEjrEC5bp8SIzeKAqVkByhaSk0Fc6Vsd3BHqYwJ3HjkLZhmdjcP4m/hpAX+qqZS1qJIWkpDj+rl7MzxrDA4u2aQikzYw+A/DkqRNylCQSQCml+ZxVxlJpXls8ZHEJyp8v8ulaZj5ciiohQyke9y5TR9jamsbE3CYYsfx2q/wD5avW/M7VtFK8LhatiEpLUeaoh+rrt2IPWNb5OmivhnBVS1g0yBPKAoEqU4UpqBg6UjXWJL4WJs0qxU4BJRyplrSAHUAUAKDkMxzal6e6Iow5kfgoQvFJBSpSuVaSzqNiXJSQE0vSHUjCpWZicarMGyh0qCWIUAnMKVHrBbspRVchmN9msMplSVLK3KilS2C9Sug94HKKM2btHNcb4HlUStctCiTlUSplpzXXlRyqGZLqFC/jHR4jiOGWGXi1LHXKltyChINLxm4lOBUgJGIqAwzAlyzAqKUgv4/GHFy8ilGNcBfAuCTJCACqXmPNnzqy5TZgUh7do2l8OQUhMxaCSOYBYYqLVe7eEYiMbgiGXMzhIAQwmcoqSKCz18TFycfgCzJBcsORdTtaE7bEkkq/2dmnjKKghAALe+DoCGgnhnEUzkKWGZK1JoQfdOvVo4D/UeHCmVy7MUHeoYjqY0+EY6Wg/h4fOhKsyynIQKGp5vAdaRtHLJdmUsUX/AOTtSVPRI8SR8AYaSpZfMjLtV3jF/NTH99Ve1NQYZXFVgEmckHUMHv2pr6Re6jLaZvqTrto9IZSVEEAsdxWMzC8XDKKlhQA0BfXz6mDMFOMwZ3DaCtDUb1ilNS6JcGglIIoXPVqQy1kfpV6fWIz8VlITkJc1OgG7wykrVUKCaWIeu8Vq8InSDTVgLT/tqdX60gEhhahfWCFy7EqUG670r5xn4zEThQMCGdQSWJcWu38wInHTSWK0uGLGnjbxiHNJlqDrg6BIP7zCjnJmJW5eYl+g8vSFD3foNpl4moYcywBoKk+dtNoFxCwVOMxJNCcpDHvUdoow0sJzK3LlypTHx09IJUUEJZKXZqHYfBo4W/bNdOkWQKYl2Fy7aHo2tukCoGUqusHewEFTR0L36l9W8dohhkqWwFtaF69qN2OghRi5BSS5ILSln6/trc27l/OJmdT3SdNRsDbzhp04pOUILFnclxS4+kSljKCqpBd+5YUPYXiXGVqkTJdFOYEUQxZtD18rjxhyQQasS1/voIsw6T+pKlX1b7MOlKiQyCLj3sz/AD29YrbtWOkUrSMoCAAQAzgmrVb7MRXUa9G/xd6wXKlKuUsNGex8XiKQKMlRvdwLncFu8CxeB/ivBSS1MtCGfXQnTpA8zBoW4Ugbh36C7xqBKbsxo9X8LRWsBIdhUUr97+kU8Sj0xXH0Yf8AoqOdkBykhOgDpO3TuamsZquDApLghSlA0BNGIPgSX3cEWjskzQbJpTUVf+HgTEyllspyhiSXT8x84abvhhpT8HFY3BrCEkpN2qDqAQS7VvGXjEslm6mkdzxHDKmpyKBAe9CxSNQCHeto53GcLyIzgkoL3DEHatba9NY0jLjkaizARhCqpD7jSjAWuwMaf+mAFzUMcwILouToWL1pvFucJYba0AGpqLBt3NYMRjkFGVaDqAXSz11s2rmkDbLSRRN4QiYElwlASS6iwKgeYp7uabmBBwxBQUgZlBzmehL0KQKmjhyToesaeFSMigTnIJcA06OBoBTMOl4h+WGYsCwGhuXBYt7v34LUx0gPh6ygCXnLJVmAoGUQf6S7GlT+oGF/o8sgkqc3IIFXd2YipzDYA9o0vypQl2S7i4bMzsX0uPTtAqFKTmzAhtGuH3ZgQ+tLQX6CvZXgpPMQGyXJADK/UHza13FxFWJwKASyGQ7iqqFmY0ao6aQZhlKTMdKgl3uQAatqaNQ9K0Fot4gkqWX93MKBThhcUr2NfF4LdhXBnYdcpiFICnOVzdRJPRh+rwFKsY6DhxQmaVZjlLpJBASk2DEK12cl9RVsKVgkJ52JUK0L0JLmg6+FTG/LlICUzEpcklzRQ94gA3DCu2kDBHRSZMsls6iTZinRNhatYImcOQB75Hl5UuIzJASohRFdDqBXbT70giWmzKHqXv1a/wAIF10DX2I4dKdVK0DhvkYJwU3LzK3cNW2z0JhijVger/bPFgkoNSDagDaQRdOxSVqg04xCgxzMdCA0CzkJzFYmLfwYV6s3YQJNQy+UrSEscygkgvQgGrU+MWYWcoKVnSgpHu8pSfm+tWi3NslRSLcRzgMvmGqgHbZ6+v8AEUKlqQRmFB+oKbRqtS8XT55UkFCJY3zPRtgGJaK0rWoMJaTu2Yd7m31ELzyOvRd+aP8AyK8h9IUAZJJuvKdQXp6worUTSNAYSYHUtYIpQAN618IyMRIWFlSUAGoASL3D3qG0oLxvT0LP/wBiexT6QFiAAU5lqqQzEAWYAnb6xOVdLwZKfNsqwyJ7AgAHUlhzP/USbRcuTOvWuxpf7tBKcSh2C+r/ADe0RRjEF2W4S7k7ilHvr6RUYxiuxuTfgGlyJj1QPBy/rED+KDYitk+7rpveNJCn90iKZ0tRB5tfsxTjYtf0BzysAKzBL1qLgCp6UbyitExZS+YEa0ZqD6jzeBMfLnKyO7AVqmwHQfbeRCMLmTz0oGr21ftHNKTUqQ7Cpa1FNQH6+nYfSHqwA1D08KHwPpFUuWguklxs7N26RJGHrc06mn3SK5dOxpoqnFbEEJZrjNm7EZfnAKM5cLFHcUYu4qQaB2Gsac+ZVisgnZn/AMRScQV+6dwSQ2wLU6GFJW68l2q6IlRI5VAsAzjYnMPUV6xeitVUNSNaN67wNhpSkmpFA99zfs6YunLcFJKCzFiH6PcQlGlbLVFagpRqnlNyFVB7bX1hp2FC05VV2o9dH613i5AUC5L9KC9i3hrFgQNgN21h0yjBn8BQQQolruG0Aoad6V+g+G4XLU6UrSuhIJIXd+YhjagBvzaR1IRsN97wOnBgKUtgNXAbRi7Ud3rW5g5DgwJfBslQVksQ5NTyh2YOaA8p1jSRwpOW6s2qgw0ZhrZ+rwamUqvkGBqG7xFK8iUuQ1hq72sO/pCHwArwLcoYi4q5szl6s3e0OrBpPvBJFQU30clncEeEaOIw4UQczGxIcFjoCKjfwijESF/oWhLXzJzZjRyWI+Vh2gGBTcKhCqHK70dszUau1K9IijBoLgoLGj08QG6/ARoIkAsVhKlM2oTXYF23iwYZPRr+P2PnDJMZXCpdyxpd6uNLNqXi3DYVCQyXCc37lWFgXHT06xsfgJqxFanT4vAxwozFkgddVE3LhmtfrABEIsAKvQVsTXsWcM9Gi9CVJIATy1Lk76b73iwyAGUEgsKMfg/SL5Up01SA9W9fOsVFMTaGRWunaLEoJPu+LxJMsuK20FB4xexjRRshySKkSS7vFokdocIOsWB4aiS5fZSJZSXSw8PjWLTnNy3YJ+YPlEVFT0IbYg3h05v3Q1GhN2VqwKDdBJ1JN4UX5eohQ6XoLfsxPzL1Lk38wa+kQUxU6mYEsK1AFSfMUhQo8qUmc5Mtlc7UG9W+cRBSGSAA4rcsGFu7WhQopzdIdliZ4L9AFeCrfCGmKpcl3a2kKFDhllfYl2KdLBTq1j4/ZiRFhs1en2RChQ1NtjJAcx0EVLn5aubv5AfKFChamK2QIBVudVdBtrWv3eaGSTT7r9G8IUKGpOyk2DKxIqQHUXd9kg2e1at3iUuc5GaxDOOjP/HcdYUKKbfBcW7FiCUlKkuxoU0qCXHlXzMEy5hI0NjZqP8AwYUKN0dQNilTHLEWoLVqzfztEPxCWdL1s+xoR01a/eFCgYIuzG5o17fLaGz13IpDQoGBCfN5XIDNZnemvhDvmIJDkVB0BanW0KFCAslu9PUXfYg7nWJKUlyNm9X+hhQoYEVSaZnIZ/DlAZhTbyh85AO1mpoR06woUAF0rFhgWYl2GjCLUYirKBHiCD6fbQoUaJkNIMEtw4ceMWZR9vChRtRg2IszvTx1hwIUKGgYvAesJSOg8zDwoYA6kTdFJHh/MKFCiQP/2Q==;" vertex="1" parent="1">
          <mxGeometry x="414" y="367" width="69" height="45.92" as="geometry" />
        </mxCell>
        <mxCell id="hIM_Yc48U5NnjwSIPtRP-25" value="&lt;font style=&quot;font-size: 8px;&quot;&gt;Fuente: Google&lt;/font&gt;" style="text;html=1;strokeColor=none;fillColor=none;align=center;verticalAlign=middle;whiteSpace=wrap;rounded=0;" vertex="1" parent="1">
          <mxGeometry x="414" y="417" width="60" height="30" as="geometry" />
        </mxCell>
        <mxCell id="hIM_Yc48U5NnjwSIPtRP-28" value="mongoDB&lt;br&gt;casandra&lt;br&gt;firebase&lt;br&gt;redis&lt;br&gt;&lt;br&gt;Oracle&lt;br&gt;DB2&lt;br&gt;SQLServer&lt;br&gt;SQLite&lt;br&gt;MariaDB&lt;br&gt;PostgreSQL&lt;br&gt;h2" style="rounded=1;whiteSpace=wrap;html=1;fillColor=#FFF70A;" vertex="1" parent="1">
          <mxGeometry x="507" y="230" width="80" height="190" as="geometry" />
        </mxCell>
        <mxCell id="hIM_Yc48U5NnjwSIPtRP-29" value="MongoAtlas&lt;br&gt;DBeaver&lt;br&gt;Workbench&lt;br&gt;SQLYog&lt;br&gt;PGAdmin&lt;br&gt;" style="rounded=1;whiteSpace=wrap;html=1;fillColor=#FFD503;" vertex="1" parent="1">
          <mxGeometry x="598" y="230" width="70" height="190" as="geometry" />
        </mxCell>
        <mxCell id="hIM_Yc48U5NnjwSIPtRP-30" value="" style="shape=flexArrow;endArrow=classic;startArrow=classic;html=1;rounded=0;" edge="1" parent="1">
          <mxGeometry width="100" height="100" relative="1" as="geometry">
            <mxPoint x="80" y="470" as="sourcePoint" />
            <mxPoint x="660" y="470" as="targetPoint" />
          </mxGeometry>
        </mxCell>
        <mxCell id="hIM_Yc48U5NnjwSIPtRP-32" value="Ciclo de vida del Software&lt;br&gt;Ingeniería de requerimientos&lt;br&gt;UML&lt;br&gt;MER-MR&lt;br&gt;Patrones arquitectónicos&lt;br&gt;Documentación&lt;br&gt;Metodologías tradicionales / ágiles" style="rounded=1;whiteSpace=wrap;html=1;" vertex="1" parent="1">
          <mxGeometry x="130" y="490" width="470" height="100" as="geometry" />
        </mxCell>
        <mxCell id="hIM_Yc48U5NnjwSIPtRP-33" value="Frontend" style="rounded=1;whiteSpace=wrap;html=1;" vertex="1" parent="1">
          <mxGeometry x="57.19" y="950" width="95.63" height="40" as="geometry" />
        </mxCell>
        <mxCell id="hIM_Yc48U5NnjwSIPtRP-35" value="Server 2" style="shape=cylinder3;whiteSpace=wrap;html=1;boundedLbl=1;backgroundOutline=1;size=15;" vertex="1" parent="1">
          <mxGeometry x="508" y="723" width="130" height="150" as="geometry" />
        </mxCell>
        <mxCell id="hIM_Yc48U5NnjwSIPtRP-36" value="Backend&lt;br&gt;Security" style="rounded=1;whiteSpace=wrap;html=1;" vertex="1" parent="1">
          <mxGeometry x="525.19" y="823" width="95.63" height="40" as="geometry" />
        </mxCell>
        <mxCell id="hIM_Yc48U5NnjwSIPtRP-37" value="Server 3" style="shape=cylinder3;whiteSpace=wrap;html=1;boundedLbl=1;backgroundOutline=1;size=15;" vertex="1" parent="1">
          <mxGeometry x="511" y="900" width="130" height="150" as="geometry" />
        </mxCell>
        <mxCell id="hIM_Yc48U5NnjwSIPtRP-38" value="Backend&lt;br&gt;Business" style="rounded=1;whiteSpace=wrap;html=1;" vertex="1" parent="1">
          <mxGeometry x="528.19" y="1000" width="95.63" height="40" as="geometry" />
        </mxCell>
        <mxCell id="hIM_Yc48U5NnjwSIPtRP-39" value="API" style="rounded=1;whiteSpace=wrap;html=1;" vertex="1" parent="1">
          <mxGeometry x="300" y="890" width="100" height="60" as="geometry" />
        </mxCell>
        <mxCell id="hIM_Yc48U5NnjwSIPtRP-40" value="" style="shape=flexArrow;endArrow=classic;startArrow=classic;html=1;rounded=0;" edge="1" parent="1">
          <mxGeometry width="100" height="100" relative="1" as="geometry">
            <mxPoint x="190" y="924.5" as="sourcePoint" />
            <mxPoint x="290" y="924.5" as="targetPoint" />
            <Array as="points">
              <mxPoint x="190" y="924.5" />
            </Array>
          </mxGeometry>
        </mxCell>
        <mxCell id="hIM_Yc48U5NnjwSIPtRP-41" value="" style="shape=flexArrow;endArrow=classic;startArrow=classic;html=1;rounded=0;" edge="1" parent="1">
          <mxGeometry width="100" height="100" relative="1" as="geometry">
            <mxPoint x="419" y="890" as="sourcePoint" />
            <mxPoint x="500" y="830" as="targetPoint" />
            <Array as="points">
              <mxPoint x="419" y="890" />
            </Array>
          </mxGeometry>
        </mxCell>
        <mxCell id="hIM_Yc48U5NnjwSIPtRP-42" value="" style="shape=flexArrow;endArrow=classic;startArrow=classic;html=1;rounded=0;" edge="1" parent="1">
          <mxGeometry width="100" height="100" relative="1" as="geometry">
            <mxPoint x="414" y="950" as="sourcePoint" />
            <mxPoint x="506" y="1000" as="targetPoint" />
            <Array as="points">
              <mxPoint x="414" y="950" />
            </Array>
          </mxGeometry>
        </mxCell>
        <mxCell id="hIM_Yc48U5NnjwSIPtRP-43" value="" style="image;points=[];aspect=fixed;html=1;align=center;shadow=0;dashed=0;image=img/lib/allied_telesis/computer_and_terminals/Personal_Computer_Wireless.svg;" vertex="1" parent="1">
          <mxGeometry x="67" y="1100" width="63" height="64.2" as="geometry" />
        </mxCell>
        <mxCell id="hIM_Yc48U5NnjwSIPtRP-44" value="" style="shape=flexArrow;endArrow=classic;startArrow=classic;html=1;rounded=0;entryX=0.46;entryY=-0.031;entryDx=0;entryDy=0;entryPerimeter=0;" edge="1" parent="1" target="hIM_Yc48U5NnjwSIPtRP-43">
          <mxGeometry width="100" height="100" relative="1" as="geometry">
            <mxPoint x="93.51" y="1020" as="sourcePoint" />
            <mxPoint x="193.51" y="1020" as="targetPoint" />
            <Array as="points">
              <mxPoint x="93.51" y="1020" />
            </Array>
          </mxGeometry>
        </mxCell>
        <mxCell id="hIM_Yc48U5NnjwSIPtRP-45" value="BD SQL&lt;br&gt;Mysql" style="shape=cylinder3;whiteSpace=wrap;html=1;boundedLbl=1;backgroundOutline=1;size=15;" vertex="1" parent="1">
          <mxGeometry x="750" y="690" width="60" height="80" as="geometry" />
        </mxCell>
        <mxCell id="hIM_Yc48U5NnjwSIPtRP-46" value="Java" style="shape=process;whiteSpace=wrap;html=1;backgroundOutline=1;" vertex="1" parent="1">
          <mxGeometry x="700" y="800" width="70" height="37" as="geometry" />
        </mxCell>
        <mxCell id="hIM_Yc48U5NnjwSIPtRP-48" value="" style="shape=flexArrow;endArrow=classic;startArrow=classic;html=1;rounded=0;entryX=-0.088;entryY=0.876;entryDx=0;entryDy=0;entryPerimeter=0;" edge="1" parent="1">
          <mxGeometry width="100" height="100" relative="1" as="geometry">
            <mxPoint x="641" y="815" as="sourcePoint" />
            <mxPoint x="693.8399999999999" y="817.412" as="targetPoint" />
            <Array as="points">
              <mxPoint x="641" y="815" />
              <mxPoint x="660" y="815" />
            </Array>
          </mxGeometry>
        </mxCell>
        <mxCell id="hIM_Yc48U5NnjwSIPtRP-50" value="" style="shape=flexArrow;endArrow=classic;startArrow=classic;html=1;rounded=0;" edge="1" parent="1">
          <mxGeometry width="100" height="100" relative="1" as="geometry">
            <mxPoint x="710" y="800" as="sourcePoint" />
            <mxPoint x="750" y="760" as="targetPoint" />
          </mxGeometry>
        </mxCell>
        <mxCell id="hIM_Yc48U5NnjwSIPtRP-51" value="BD NoSQL&lt;br&gt;MongoDB" style="shape=cylinder3;whiteSpace=wrap;html=1;boundedLbl=1;backgroundOutline=1;size=15;" vertex="1" parent="1">
          <mxGeometry x="753" y="876" width="60" height="80" as="geometry" />
        </mxCell>
        <mxCell id="hIM_Yc48U5NnjwSIPtRP-52" value="node" style="shape=process;whiteSpace=wrap;html=1;backgroundOutline=1;" vertex="1" parent="1">
          <mxGeometry x="703" y="986" width="70" height="37" as="geometry" />
        </mxCell>
        <mxCell id="hIM_Yc48U5NnjwSIPtRP-53" value="" style="shape=flexArrow;endArrow=classic;startArrow=classic;html=1;rounded=0;entryX=-0.088;entryY=0.876;entryDx=0;entryDy=0;entryPerimeter=0;" edge="1" parent="1">
          <mxGeometry width="100" height="100" relative="1" as="geometry">
            <mxPoint x="644" y="1001" as="sourcePoint" />
            <mxPoint x="696.8399999999999" y="1003.412" as="targetPoint" />
            <Array as="points">
              <mxPoint x="644" y="1001" />
              <mxPoint x="663" y="1001" />
            </Array>
          </mxGeometry>
        </mxCell>
        <mxCell id="hIM_Yc48U5NnjwSIPtRP-54" value="" style="shape=flexArrow;endArrow=classic;startArrow=classic;html=1;rounded=0;" edge="1" parent="1">
          <mxGeometry width="100" height="100" relative="1" as="geometry">
            <mxPoint x="713" y="986" as="sourcePoint" />
            <mxPoint x="753" y="946" as="targetPoint" />
          </mxGeometry>
        </mxCell>
        <mxCell id="hIM_Yc48U5NnjwSIPtRP-55" value="Nota:&lt;br&gt;Establecer &lt;br&gt;Docker - Controles de despliegue" style="rounded=1;whiteSpace=wrap;html=1;" vertex="1" parent="1">
          <mxGeometry x="528.19" y="1080" width="120" height="60" as="geometry" />
        </mxCell>
      </root>
    </mxGraphModel>
  </diagram>
</mxfile>
